<?xml version="1.0" encoding="utf-8"?>
<!-- Designed by Vexels.com - 2020 All Rights Reserved - https://vexels.com/terms-and-conditions/  -->
<svg version="1.1" id="Layer_1" xmlns="http://www.w3.org/2000/svg" xmlns:xlink="http://www.w3.org/1999/xlink" x="0px" y="0px"
	 viewBox="0 0 1200 1200" enable-background="new 0 0 1200 1200" xml:space="preserve">
<g>
	<g>
		<path fill="#F6E5C9" d="M960.941,860.45c-23.103,21.263-48.497,39.693-75.65,54.518c-31.429,17.16-61.892,13.149-96.599,13.216
			c-73.369,0.141-146.738,0.28-220.106,0.407c-96.526,0.167-193.087,1.081-289.612,0.278c-9.788-0.088-18.774-0.704-28.254-0.902
			c-27.46-0.573-44.045,1.51-67.377-13.966c-26.943-17.871-54.579-39.398-74.7-65.817C67.549,794.226,62.313,712.22,96.17,652.79
			c39.111-68.654,116.402-98.149,186.753-126.465c90.79-36.543,180.031-79.335,260.117-137.881
			c58.499-42.766,113.495-94.642,181.322-116.573c36.852-11.916,76.043-14.323,114.355-10.268
			c100.899,10.679,201.08,72.876,240.57,172.753c19.031,48.133,23.202,101.945,17.928,153.9
			c-9.99,98.421-55.516,191.279-122.596,259.007C970.156,851.769,965.595,856.167,960.941,860.45z"/>
	</g>
	<g>
		<path fill="#F2B37A" d="M789.62,562.443c0.015-6.436-0.358-11.417,3.061-17.077c2.802-4.64,6.139-8.31,7.701-13.584
			c1.476-4.983,2.004-10.186,2.766-15.309c0.756-5.082,1.795-10.261,4.133-14.881c2.16-4.267,5.872-6.943,8.335-11.043
			c1.638-2.726,3.161-5.892,5.865-7.672c2.686-1.768,5.284-3.499,7.892-5.468c2.441-1.843,5.569-0.802,6.822,2.217
			c0.402,0.97,0.665,1.998,1.008,2.994c0.228,0.661,0.296,1.533,0.761,1.933c3.665,3.151,5.325,7.216,5.816,11.909
			c0.066,0.631,0.596,1.273,1.045,1.793c1.996,2.311,2.582,4.969,1.891,7.875c-0.521,2.19-0.299,4.099,1.124,5.936
			c1.993,2.573,1.595,5.281-0.058,7.846c-0.948,1.471-2.014,2.892-3.196,4.179c-1.901,2.07-3.856,4.106-5.938,5.991
			c-7.881,7.135-14.496,15.273-20.076,24.324c-2.576,4.179-5.59,8.1-8.559,12.021c-1.926,2.543-4.409,4.492-7.343,5.88
			c-2.027,0.959-4.043,1.068-6.154,0.561c-2.582-0.62-4.401-2.181-5.297-4.66C790.627,566.565,790.273,564.835,789.62,562.443z"/>
	</g>
	<g>
		<path fill="#CD8C38" d="M800.618,329.924c1.799,7.129,1.027,13.958-2.237,20.539c-2.728,5.499-7.506,10.689-8.018,16.975
			c-0.349,4.281,0.601,8.55,1.544,12.74c3.24,14.388,8.611,28.441,13.297,42.5c2.547,8.044,12.754,39.479,15.386,47.123
			c4.007,11.634,23.288,64.478,28.762,79.322c0.604,1.638,1.137,3.314,1.537,5.012c0.346,1.472-0.38,2.736-1.244,3.876
			c-1.322,1.744-4.381,1.731-5.413-0.098c-1.03-1.824-2.095-3.678-2.76-5.648c-2.024-5.994-3.779-12.079-5.792-18.078
			c-3.804-11.333-34.213-97.164-39.565-112.426c-3.144-8.967-5.79-17.412-8.209-26.665c-2.309-8.83-5.239-17.876-10.954-25.147
			c-5.095-6.482-12.991-9.893-17.856-16.973c-4.747-6.908-6.422-15.175-5.193-23.432c1.358-9.119,6.01-16.313,14.09-21.234
			c6.507-3.963,17.188-2.723,22.717,2.309c4.006,3.646,6.837,8.004,8.424,13.154C799.754,325.784,800.13,327.871,800.618,329.924z"
			/>
	</g>
	<g>
		<path fill="#F6E5C9" d="M221.003,491.334c-3.189-28.301-6.377-56.601-9.566-84.902c2.733,1.293,5.054,3.441,6.555,6.066
			c0.127-2.739,1.41-5.406,3.471-7.214c2.05,2.689,3.38,5.922,3.816,9.275c0.136-2.136,0.917-4.923,3.058-4.925
			c1.224-0.001,2.182,1.005,2.98,1.933c7.987,9.289,15.973,18.578,23.96,27.866c11.393,13.251,22.908,26.683,30.667,42.341
			c4.825-5.413,11.812-8.281,18.545-10.974c22.082-8.833,44.784-17.795,68.564-18.148c0.825-0.012,1.76,0.033,2.301,0.656
			c0.446,0.513,0.474,1.257,0.48,1.937c0.021,2.557,0.041,5.114,0.062,7.671c2.858-1.64,6.019-2.75,9.275-3.254
			c2.367,6.971,4.735,13.942,7.102,20.912c0.375,1.104,0.754,2.282,0.481,3.416c-0.329,1.362-1.513,2.324-2.647,3.147
			c-21.567,15.645-49.916,18.765-72.811,32.394c-9.999,5.952-18.76,13.798-28.703,19.842c-9.943,6.045-21.749,10.294-33.144,7.938
			c-11.357-2.348-20.136-10.823-26.421-20.147C222.389,517.316,222.309,502.922,221.003,491.334z"/>
	</g>
	<g>
		<g>
			<path fill="#B9AC97" d="M229.999,528.56c3.51-19.929,4.732-38.297,3.683-55.703c-1.351-22.414-6.682-43.493-15.497-61.643
				c-0.076,0.426-0.173,0.849-0.193,1.282c-0.396-0.692-0.855-1.346-1.357-1.964c9.092,18.277,14.579,39.64,15.95,62.389
				c1.024,16.995-0.144,34.928-3.488,54.339C229.391,527.697,229.694,528.129,229.999,528.56z"/>
		</g>
		<g>
			<path fill="#B9AC97" d="M235.306,535.113c9.407-20.132,12.929-43.496,10.174-67.605c-2.198-19.216-8.28-38.565-18.089-57.635
				c-0.333,0.163-0.628,0.395-0.871,0.7c9.689,18.887,15.693,38.043,17.868,57.059c2.714,23.742-0.713,46.741-9.888,66.597
				C234.764,534.527,235.034,534.821,235.306,535.113z"/>
		</g>
		<g>
			<path fill="#B9AC97" d="M385.347,460.182c-1.202,0.048-2.401,0.144-3.599,0.27c-1.517,0.444-2.992,1.017-4.408,1.72
				c2.788-0.496,5.578-0.818,8.375-0.904C385.593,460.906,385.47,460.544,385.347,460.182z"/>
		</g>
		<g>
			<path fill="#B9AC97" d="M299.444,492.924c18.996-11.437,39.658-19.053,59.158-25.577c5.807-1.945,11.549-3.746,17.289-4.887
				c-0.003-0.367-0.006-0.733-0.009-1.1c-5.864,1.145-11.713,2.963-17.629,4.943c-19.559,6.546-40.291,14.188-59.376,25.681
				c-20.634,12.425-36.114,27.525-46.009,44.883c-0.15,0.264-0.058,0.599,0.205,0.75c0.086,0.049,0.18,0.073,0.273,0.073
				c0.19,0,0.376-0.099,0.478-0.277C263.624,520.22,278.973,505.252,299.444,492.924z"/>
		</g>
		<g>
			<path fill="#B9AC97" d="M245.549,534.968c-0.116,0.281,0.017,0.604,0.297,0.719c0.069,0.028,0.141,0.041,0.21,0.041
				c0.216,0,0.421-0.129,0.508-0.339c8.413-20.346,24.925-34.177,37.295-42.199c16.164-10.483,34.647-17.457,52.214-23.43
				c13.088-4.448,26.41-8.583,39.776-12.388c-0.003-0.381-0.006-0.762-0.009-1.143c-13.481,3.833-26.92,8.004-40.121,12.492
				c-17.633,5.994-36.193,12.998-52.458,23.546C265.334,503.893,252.293,518.658,245.549,534.968z"/>
		</g>
		<g>
			<path fill="#B9AC97" d="M293.061,476.105c-1.831,1.084-3.574,2.288-5.146,3.699C289.627,478.541,291.344,477.308,293.061,476.105
				z"/>
		</g>
		<g>
			<path fill="#B9AC97" d="M239.299,538.968c6.834-22.476,26.019-42.123,46.454-57.552c-0.166-0.332-0.354-0.651-0.523-0.982
				c-20.492,15.452-39.787,35.146-46.842,57.73C238.687,538.437,238.993,538.703,239.299,538.968z"/>
		</g>
	</g>
	<g>
		<path fill="#241B14" d="M1051.01,674.131c0.525-1.164,1.062-2.44,0.754-3.679c-0.425-1.714-2.244-2.63-3.873-3.312
			c-4.948-2.069-10-4.01-15.293-4.88c-5.787-0.951-11.71-0.597-17.544-1.201c-16.436-1.7-31.543-10.903-48.052-11.582
			c-37.019-1.522-65.36,39.104-102.409,38.748c-4.96,3.682-4.477,11.77-0.575,16.558c3.902,4.788,10.057,7.037,15.964,8.845
			c21.238,6.499,43.892,10.033,65.707,5.866c5.888-1.125,11.661-2.799,17.555-3.889c20.977-3.877,44.977-0.994,61.261-14.776
			c4.804-4.066,8.584-9.607,13.963-12.97C1045.97,683.17,1047.019,682.98,1051.01,674.131z"/>
	</g>
	<g>
		<path fill="#F2B37A" d="M928.826,649.753c-0.431-15.866,0.685-31.67,2.745-47.367c2.336-17.798,6.013-35.342,12.025-52.328
			c2.955-8.348,7.008-16.106,12.077-23.35c3.056-4.368,6.777-8.05,11.147-11.115c4.214-2.956,8.826-4.159,13.941-3.742
			c3.69,0.301,6.837,1.657,9.221,4.491c4.632,5.506,7.831,11.695,8.241,19.011c0.415,7.393,0.18,14.754-1.41,22.041
			c-2.548,11.677-14.328,70.257-17.757,87.852c-2.689,13.802-5.449,27.592-7.169,41.56c-1.161,9.42-2.215,18.853-3.39,28.272
			c-0.739,5.928-1.347,11.891-2.489,17.746c-1.504,7.708-4.681,14.732-10.14,20.546c-1.459,1.554-3.148,2.815-5.332,3.199
			c-3.322,0.584-6.222-0.2-8.786-2.466c-3.026-2.674-4.777-6.126-5.804-9.87c-1.019-3.716-1.73-7.546-2.202-11.373
			c-0.515-4.178-0.487-8.4-1.658-12.521c-0.566-1.991-0.537-4.18-0.589-6.283c-0.339-13.715-0.831-27.416-1.907-41.102
			C928.984,665.247,929.037,657.489,928.826,649.753z"/>
	</g>
	<g>
		<g>
			<path fill="#C28953" d="M975.202,559.229c-1.479-2.972-5.7-2.766-9.227-1.241c-11.643,5.036-22.084,13.892-31.589,26.824
				c-0.161,0.852-0.322,1.704-0.475,2.557c9.751-13.806,20.483-23.173,32.501-28.372c2.273-0.984,6.48-1.939,7.807,0.722
				c0.766,1.538-0.034,3.524-0.702,4.886c-4.484,9.121-12.221,16.226-19.701,23.097c-2.316,2.128-4.712,4.328-6.976,6.557
				c-6.188,6.089-11.742,12.772-16.621,19.932c-0.073,0.744-0.13,1.49-0.198,2.234c5.093-7.719,10.986-14.886,17.589-21.384
				c2.25-2.212,4.639-4.407,6.948-6.529c7.556-6.939,15.369-14.115,19.945-23.421C975.274,563.52,976.185,561.203,975.202,559.229z"
				/>
		</g>
		<g>
			<path fill="#C28953" d="M969.727,609.705c0.046-2.536-2.409-4.336-4.709-4.551c-2.3-0.198-4.496,0.754-6.382,1.677
				c-11.533,5.647-21.606,13.802-29.587,23.777c-0.028,0.619-0.059,1.239-0.083,1.858c8.018-10.389,18.314-18.851,30.154-24.647
				c1.75-0.857,3.783-1.763,5.796-1.57c1.82,0.17,3.746,1.589,3.712,3.434c-0.023,1.19-0.82,2.285-1.637,3.305
				c-4.975,6.228-10.759,11.935-16.354,17.453c-2.943,2.906-5.988,5.908-8.884,8.958c-5.35,5.632-9.553,10.82-12.801,15.856
				c0.013,0.687,0.028,1.374,0.04,2.061c3.323-5.438,7.731-11.027,13.558-17.161c2.884-3.035,5.922-6.033,8.859-8.93
				c5.617-5.541,11.426-11.271,16.441-17.549C968.784,612.508,969.698,611.239,969.727,609.705z"/>
		</g>
		<g>
			<path fill="#C28953" d="M948.613,673.042c8.446-6.866,12.144-13.322,11.307-19.74c-0.1-0.762-0.321-1.864-1.08-2.629
				c-1.333-1.342-3.61-1.149-6.254,0.518c-9.002,5.679-16.772,13.016-23.008,21.535c0.006,0.075,0.008,0.151,0.013,0.226
				c0.039,0.491,0.064,0.982,0.101,1.473c6.276-8.863,14.225-16.466,23.48-22.304c1.029-0.649,3.562-2.012,4.887-0.672
				c0.525,0.528,0.692,1.392,0.77,1.995c0.785,6.007-2.783,12.139-10.909,18.743c-1.949,1.585-3.978,3.146-5.94,4.656
				c-3.891,2.991-7.9,6.091-11.523,9.545c0.026,0.484,0.049,0.968,0.074,1.452c0.09-0.088,0.168-0.177,0.259-0.265
				c3.688-3.576,7.841-6.772,11.86-9.86C944.618,676.201,946.653,674.636,948.613,673.042z"/>
		</g>
	</g>
	<g>
		<path fill="#2A604A" d="M915.135,626.589c-0.117-4.886-0.375-12.258-0.443-19.632c-0.046-4.961,0.825-9.787,3.204-14.218
			c0.282-0.525,1.1-1.153,1.574-1.083c0.547,0.081,1.078,0.823,1.45,1.388c0.377,0.573,0.678,1.257,0.795,1.93
			c1.451,8.344,4.097,16.347,6.97,24.276c2.77,7.645,4.501,15.525,5.283,23.588c0.406,4.181,0.626,8.445,0.294,12.621
			c-1.148,14.464-4.285,28.464-10.669,41.608c-1.381,2.844-2.719,5.71-4.107,8.551c-3.266,6.688-5.813,13.552-5.672,21.168
			c0.018,0.973-0.475,2.051-1.015,2.899c-0.248,0.389-1.475,0.673-1.759,0.428c-1.035-0.896-1.963-1.965-2.745-3.097
			c-2.084-3.019-4.898-5.66-8.367-5.871c-3.874-0.235-6.543-1.946-9.424-4.02c-2.549-1.834-5.319-3.445-8.174-4.755
			c-14.487-6.648-25.772-16.89-34.305-30.246c-2.833-4.435-6.862-8.033-8.992-12.931c-0.191-0.44,0.306-1.239,0.611-1.802
			c0.1-0.185,0.636-0.274,0.912-0.195c0.655,0.188,1.324,0.422,1.897,0.782c2.083,1.306,4.115,2.693,6.191,4.009
			c5.325,3.378,10.253,7.384,15.977,10.128c0.288,0.138,0.894,0.17,1.009,0.008c0.367-0.516,0.914-1.243,0.781-1.716
			c-0.568-2.014-1.326-3.977-2.069-5.938c-2.369-6.25-4.49-12.573-5.719-19.16c-1.482-7.945-2.916-15.905-3.058-24.012
			c-0.136-7.729-0.131-15.461-0.108-23.192c0.003-1.003,0.445-2.019,0.784-2.995c0.063-0.182,0.603-0.274,0.92-0.27
			c0.303,0.005,0.779,0.106,0.876,0.309c0.749,1.561,1.657,3.097,2.081,4.753c2.9,11.329,7.729,21.826,13.512,31.926
			c2.095,3.659,4.173,7.328,6.306,10.965c8.562,14.602,15.531,29.914,20.674,46.053c0.85,2.669,1.855,5.294,2.91,7.889
			c0.166,0.409,0.97,0.593,1.514,0.777c0.078,0.027,0.519-0.54,0.514-0.827c-0.033-1.742,0.084-3.53-0.268-5.215
			c-3.816-18.241-8.646-36.199-15.042-53.724c-2.046-5.605-3.884-11.29-5.688-16.979c-4.944-15.589-6.748-31.585-5.619-47.866
			c0.388-5.589,1.452-11.139,2.403-16.673c0.222-1.294,1.151-2.515,1.952-3.628c0.201-0.28,1.474-0.254,1.721,0.057
			c0.629,0.788,1.183,1.774,1.369,2.756c2.878,15.218,7.684,29.919,11.858,44.793c3.61,12.862,6.157,25.925,7.385,39.291
			c0.9,9.794,1.933,19.571,2.501,29.394c0.06,1.033,0.374,2.059,0.643,3.069c0.219,0.818,0.837,1.157,1.661,0.935
			c0.296-0.08,0.717-0.334,0.772-0.578c1.002-4.431,2.231-8.834,2.871-13.32C915.956,655.75,917.052,642.45,915.135,626.589z"/>
	</g>
	<g>
		<g>
			<path d="M889.846,716.7c-1.676-5.238-3.999-10.276-6.926-14.902c-2.093-3.308-4.511-6.454-6.85-9.497
				c-1.884-2.453-3.832-4.987-5.588-7.581c-2.633-3.887-4.949-8.066-6.981-12.558c0.282,0.769,0.554,1.542,0.844,2.309
				c0.699,1.844,1.398,3.692,1.953,5.58c1.038,1.813,2.12,3.585,3.274,5.288c1.776,2.62,3.734,5.167,5.627,7.633
				c2.324,3.024,4.726,6.149,6.792,9.416c2.636,4.164,4.767,8.67,6.377,13.355C888.862,716.059,889.365,716.365,889.846,716.7z"/>
		</g>
		<g>
			<path d="M927.504,646.389c-0.649-8.842-2.908-17.562-5.094-25.994c-0.898-3.462-1.826-7.042-2.628-10.578
				c-1.022-4.504-2.076-10.033-2.443-15.938c-0.345,0.729-0.665,1.464-0.936,2.211c0.466,5.163,1.398,9.968,2.307,13.972
				c0.805,3.55,1.735,7.139,2.635,10.608c2.174,8.387,4.421,17.057,5.061,25.801c1.367,18.66-4.526,37.018-10.225,54.772
				c-1.633,5.086-3.307,10.301-4.811,15.522c0.771-18.359-4.564-36.254-9.484-50.148c-1.909-5.391-3.992-10.822-6.005-16.074
				c-4.663-12.163-9.484-24.74-12.464-37.611c-3.135-13.533-5.184-32.739,1.471-50.336c-0.239-0.152-0.716-0.206-1.112-0.16
				c-6.649,17.79-4.588,37.116-1.431,50.745c2.998,12.944,7.833,25.558,12.51,37.755c2.011,5.247,4.09,10.672,5.994,16.046
				c5.395,15.232,11.291,35.294,8.982,55.407c-0.032,0.286,0.162,0.55,0.446,0.604c0.034,0.006,0.068,0.009,0.101,0.009
				c0.246,0,0.468-0.165,0.532-0.412c1.829-7.023,4.112-14.134,6.32-21.011C922.959,683.725,928.886,665.263,927.504,646.389z"/>
		</g>
		<g>
			<path d="M880.234,676.191c-3.502-5.524-7.122-11.237-10.064-17.182c-4.454-8.999-7.805-19.229-10.863-33.163
				c-1.539-7.011-2.714-14.219-2.067-20.998c-0.025-0.001-0.054-0.006-0.077-0.007c-0.318-0.005-0.857,0.088-0.92,0.27
				c-0.052,0.149-0.107,0.3-0.161,0.45c-0.496,6.674,0.653,13.691,2.152,20.521c3.079,14.025,6.456,24.332,10.951,33.417
				c2.968,5.994,6.604,11.733,10.121,17.281c3.026,4.772,6.154,9.71,8.834,14.776c5.513,10.425,8.095,20.048,7.81,28.739
				c0.351,0.133,0.714,0.248,1.083,0.353c0.367-8.967-2.249-18.883-7.92-29.608C886.412,685.935,883.271,680.982,880.234,676.191z"
				/>
		</g>
	</g>
	<g>
		<path fill="#2A604A" d="M748.932,847.211c7.248-5.219,15.431-9.867,24.357-10.172c0.455,1.156-0.566,2.324-1.494,3.15
			c-4.105,3.65-8.211,7.301-12.316,10.951c10.618-5.121,21.753-9.169,33.181-12.064c2.905-0.736,5.883-1.402,8.872-1.183
			s6.034,1.444,7.816,3.854c-6.509,3.001-13.422,5.124-20.493,6.297c8.04-0.785,16.452-1.521,23.934,1.525
			c1.967,0.801,4.143,2.506,3.606,4.561c-0.319,1.219-1.502,1.986-2.63,2.548c-7.701,3.839-16.698,3.585-25.297,3.912
			c-9.687,0.369-19.341,1.584-28.817,3.628c8.369-0.247,16.785,1.262,24.547,4.401c1.882,0.761,4.092,2.59,3.099,4.361
			c-0.336,0.599-0.97,0.96-1.587,1.261c-4.962,2.424-10.64,2.843-16.159,3.01c-7.869,0.237-15.743,0.045-23.613-0.147
			c-7.392-0.181-15.642,0.617-22.926-0.633c-6.17-1.059-6.637-6.68-2.928-11.237c2.596-3.19,7.233-3.945,10.787-5.599
			C737.489,856.551,743.047,851.448,748.932,847.211z"/>
	</g>
	<g>
		<path fill="#2A604A" d="M710.976,711.328c-1.032-0.4-2.069-0.659-2.961-1.17c-19.162-10.986-35.389-25.313-48.329-43.211
			c-4.308-5.959-7.926-12.418-11.813-18.678c-0.547-0.88-0.833-1.923-1.233-2.893c-0.34-0.824,0.152-2.305,0.96-2.711
			c1.232-0.62,2.648-1.013,3.679-1.871c6.245-5.2,13.289-9.15,20.245-13.256c5.44-3.211,10.798-6.561,16.17-9.884
			c0.888-0.549,1.672-1.271,2.486-1.935c1.072-0.875,1.461-2.594,0.799-3.755c-1.04-1.821-2.149-3.603-3.184-5.427
			c-0.132-0.233,0.008-0.62,0.022-0.936c0.592,0.053,1.43-0.13,1.74,0.193c7.308,7.611,13.961,15.764,20.048,24.383
			c1.003,1.42,2.155,2.738,3.268,4.078c0.564,0.679,2.26,0.58,2.783-0.137c0.827-1.133,1.669-2.257,2.447-3.423
			c21.891-32.793,46.361-63.533,73.401-92.227c1.201-1.274,2.413-2.544,3.708-3.718c1.156-1.048,2.562-1.104,3.921-0.428
			c1.242,0.618,2.636,1.159,3.579,2.114c4.935,4.994,9.794,10.066,14.578,15.205c1.867,2.006,1.918,4.441,0.741,6.865
			c-0.766,1.578-1.607,3.122-2.449,4.661c-16.533,30.199-34.06,59.8-53.054,88.525c-4.842,7.322-9.448,14.8-14.229,22.163
			c-6.921,10.659-15.214,20.194-24.383,28.945c-3.026,2.888-6.548,5.271-9.947,7.743
			C713.196,711.107,711.991,711.081,710.976,711.328z"/>
	</g>
	<g>
		<path fill="#2A604A" d="M382.258,728.399c13.564-1.765,18.58-20.47,23.139-33.69c5.309-15.396,9.63-31.173,12.76-47.159
			c0.864-4.411-9.841-8.491-12.92-10.415c-0.879-0.549-1.655-1.271-2.46-1.935c-1.061-0.875-1.446-2.594-0.79-3.755
			c1.029-1.821,2.127-3.603,3.151-5.427c0.131-0.233-0.008-0.62-0.022-0.936c-0.586,0.053-1.415-0.13-1.722,0.193
			c-7.233,7.61-13.817,15.764-19.841,24.383c-0.993,1.42-2.133,2.738-3.234,4.078c-0.558,0.679-2.237,0.581-2.754-0.137
			c-0.819-1.133-1.652-2.257-2.422-3.423c-21.665-32.793-45.883-63.532-72.643-92.227c-1.188-1.274-2.388-2.544-3.67-3.718
			c-1.144-1.048-2.536-1.104-3.88-0.428c-1.23,0.618-2.609,1.159-3.542,2.114c-4.884,4.994-9.693,10.065-14.428,15.205
			c-1.848,2.006-1.898,4.44-0.734,6.865c0.758,1.578,1.59,3.122,2.424,4.661c12.724,23.485,26.062,46.642,40.215,69.297
			c6.538,10.465,10.983,19.596,15.644,30.742c4.727,11.303,11.38,21.802,19.6,30.888c4.254,4.702,9.009,9.09,14.693,11.901
			C374.073,728.074,378.494,728.888,382.258,728.399z"/>
	</g>
	<g>
		<path fill="#1A4E39" d="M389.56,676.764L389.56,676.764c-0.246-0.009-0.466-0.178-0.525-0.419
			c-1.36-5.5-2.785-10.305-6.469-13.367c-3.5-2.912-8.229-3.542-13.599-4.018c-5.258-0.47-11.799-1.05-17.08,1.652
			c-0.266,0.14-0.599,0.032-0.74-0.238c-0.139-0.271-0.031-0.601,0.239-0.741c5.566-2.848,12.281-2.249,17.677-1.768
			c4.525,0.402,10.158,0.9,14.205,4.268c3.612,3.003,5.231,7.781,6.3,11.84c1.043-5.313,0.088-11.692-4.458-15.526
			c-1.728-1.458-3.836-2.427-5.874-3.363l-17.986-8.275c-0.276-0.129-0.396-0.455-0.27-0.73c0.127-0.277,0.457-0.397,0.729-0.271
			l17.986,8.275c2.105,0.969,4.282,1.969,6.123,3.522c5.543,4.676,6.141,12.798,4.274,18.773
			C390.021,676.607,389.799,676.764,389.56,676.764z"/>
	</g>
	<g>
		<path fill="#F2B37A" d="M596.631,500.277c-1.826,2.661-4.377,4.486-7.126,6.114c-6.136,3.585-12.822,5.718-19.706,7.148
			c-13.46,2.837-27.139,3.453-39.697,4.113c-21.179-0.902-41.061-2.683-60.063-9.853c-6.268-2.353-12.338-5.036-18.1-8.445
			c-2.727-1.627-5.3-3.431-7.346-5.916c-2.133-2.595-2.529-7.17-0.506-9.853c1.254-1.649,2.683-3.299,4.355-4.509
			c3.101-2.265,6.378-4.355,9.743-6.224c9.523-5.322,19.53-9.589,29.888-12.976c1.671-0.55,3.365-0.968,5.036-1.539
			c3.365-1.166,3.981-2.111,3.453-5.344c-0.418-2.419-0.704-4.883-1.32-7.236c-0.616-2.287-1.012-4.597-1.32-6.906
			c-0.55-3.959-0.792-7.939-1.298-11.876c-0.176-1.43-0.242-2.837-0.22-4.244c0.044-3.123,0.55-6.268,1.232-9.347
			c0.308-1.342,0.748-2.705,1.298-3.981c2.353-5.63,8.005-8.137,13.877-6.158c5.476,1.848,10.007,5.036,13.592,9.589
			c0.396,0.506,0.77,1.012,1.144,1.517h0.022c2.089,2.903,3.827,6.048,5.102,9.391c0.77,2.089,1.496,4.2,2.177,6.312
			c0.836,2.551,1.605,5.124,2.419,7.697c0.528,1.671,0.726,3.431,1.254,5.102c4.706,15.439,2.287,12.03,15.527,17
			c10.534,3.937,20.717,8.687,30.614,14.032c4.333,2.331,8.445,5.014,11.876,8.621c2.199,2.309,4.069,4.816,5.279,7.808
			C599.292,493.877,598.786,497.154,596.631,500.277z"/>
	</g>
	<g>
		<path fill="#C28953" d="M530.85,430.054c-1.54,2.551-3.849,4.706-6.422,6.224c-7.302,4.288-22.499,8.379-30.504,2.573
			c-0.55-3.959-0.792-7.939-1.298-11.876c-0.176-1.43-0.242-2.837-0.22-4.244c6.686-6.158,21.663-8.16,28.107-8.445
			c0.99-0.044,2.023-0.022,3.035,0.066h0.022c2.089,2.903,3.827,6.048,5.102,9.391C529.443,425.831,530.169,427.943,530.85,430.054z
			"/>
	</g>
	<g>
		<path fill="#2A604A" d="M511.225,468.036c7.314,0.126,19.759-1.015,25.208-2.416c4.797-1.234,9.295-3.113,13.516-5.668
			c2.648-1.603,5.323-1.478,8.043-0.31c1.897,0.815,4.332,1.362,4.414,3.868c0.094,2.896-6.104,8.815-8.002,10.992
			c-3.177,3.643-6.825,6.848-10.514,9.958c-6.581,5.546-13.485,10.906-21.432,14.208c-7.947,3.302-17.141,4.376-25.158,1.247
			c-4.521-1.764-8.462-4.766-11.983-8.106c-5.706-5.412-13.409-13.821-15.359-21.697c-1.979-7.997,10.516-10.415,16.001-7.855
			c7.038,3.285,14.583,4.867,22.312,5.629C509.107,467.968,510.106,468.017,511.225,468.036z"/>
	</g>
	<g>
		<path fill="#F2B37A" d="M574.352,390.313c-4.684,5.388-10.204,9.765-17.286,11.524c-2.639,0.66-4.377,1.891-5.366,4.421
			c-6.378,16.099-18.782,24.852-35.145,28.876c-9.611,2.353-18.87,1.122-27.909-2.331c-21.443-8.182-28.327-32.769-23.862-53.773
			c0.66-3.123,1.562-6.158,2.705-9.061l0.33-0.858c0.946-2.331,1.87-4.662,2.683-7.038c1.804-5.366,2.749-10.886,1.87-16.583
			c-0.154-0.99-1.738-11.106-1.936-12.492c-0.506-3.475-0.901-6.972-1.253-10.447c-0.11-1.122,0.462-2.089,1.562-2.419
			c4.355-1.363,8.731-2.595,13.086-3.981c5.103-1.627,10.338-1.809,16.605-1.957c6.977-0.165,14.339,1.804,21.311,5.432
			c12.074,6.268,18.958,16.363,21.531,29.559c0.616,3.123,1.1,6.224,1.693,9.347c0.154,0.836,1.649,1.452,2.551,1.1
			c2.903-1.209,5.806-2.463,8.753-3.585c6.07-2.331,11.81-1.056,17.221,1.979c4.97,2.793,7.543,7.235,7.808,12.932
			C581.676,378.349,579.169,384.815,574.352,390.313z"/>
	</g>
	<g>
		<path fill="#241B14" d="M517.537,777.464c-9.711-0.092-25.184-0.232-40.658-0.386c-7.746-0.077-15.492-0.264-23.02-2.371
			c-3.373-0.944-6.784-1.879-9.998-3.243c-5.526-2.346-8.925-6.636-10.36-12.5c-4.26-17.402-10.055-34.386-11.492-52.353
			c-1.151-14.387-4.142-26.45-7.429-40.64c-0.137-0.593-0.295-1.226-0.749-1.633c-0.333-0.298-0.778-0.429-1.207-0.552
			c-13.056-3.732-27.205-4.075-39.335-10.604c-10.892-5.862-18.66-16.419-23.499-27.802c-4.839-11.384-7.051-23.68-9.228-35.857
			c-2.19-12.25-6.886-27.396,1.38-37.757c6.02-7.546,12.935-14.576,19.854-21.317c4.785-4.661,9.418-9.479,14.226-14.115
			c6.328-6.101,12.702-12.158,19.161-18.12c13.131-12.119,28.375-20.696,45.311-26.181c9.031-2.925,18.066-5.78,26.728-9.691
			c2.863-1.293,5.417-1.14,7.686,1.225c9.666,10.073,21.974,14.92,35.311,17.528c6.948,1.358,14.035,1.354,20.999,0.121
			c9.949-1.762,18.638-6.135,25.693-13.521c1.941-2.032,3.882-4.075,5.965-5.958c1.652-1.493,3.737-1.975,5.906-1.361
			c2.021,0.572,4.026,1.244,5.969,2.04c13.664,5.601,27.082,11.744,40.306,18.315c9.85,4.894,18.68,11.194,26.437,18.998
			c1.488,1.496,2.964,3.009,4.531,4.421c12.407,11.182,22.335,24.336,30.566,38.785c4.348,7.633,8.351,15.464,12.455,23.235
			c3.774,7.147,13.829,26.482,14.977,29.045c0.913,2.04,0.811,4.145-0.62,5.975c-10.239,13.084-21.301,25.321-35.928,33.7
			c-6.706,3.841-13.568,7.411-20.378,11.067c-1.234,0.663-2.548,1.187-3.852,1.709c-2.841,1.138-4.869,0.555-6.326-1.849
			c-1.093-1.803-2.119-3.647-3.15-5.487c-4.639-8.277-9.252-16.568-13.951-24.811c-0.241-0.423-1.175-0.502-1.809-0.609
			c-0.143-0.024-0.562,0.521-0.543,0.782c0.102,1.399,0.263,2.797,0.473,4.184c0.945,6.255,5.227,34.758,6.205,42.782
			c1.701,13.958,3.116,27.951,4.894,41.898c1.466,11.505,3.294,22.964,4.941,34.446c0.349,2.433,0.569,4.884,0.919,7.317
			c0.784,5.452-0.793,10.436-2.962,15.307c-1.652,3.71-4.403,6.347-8.132,7.874c-2.271,0.93-4.596,1.825-6.982,2.353
			c-4.457,0.986-8.946,2.086-13.476,2.439c-12.262,0.958-24.458,2.652-36.801,2.792
			C552.129,777.248,537.727,778.329,517.537,777.464z"/>
	</g>
	<g>
		<g>
			<path d="M617.938,619.876c-0.209-1.388-0.371-2.785-0.473-4.184c-0.013-0.176,0.173-0.471,0.34-0.644
				c-4.489-21.21-8.415-42.98-6.924-64.857c1.576-23.14,9.692-43.517,22.635-57.635c-0.286-0.23-0.565-0.469-0.853-0.696
				c-13.085,14.3-21.287,34.892-22.879,58.258c-1.695,24.872,3.553,49.536,8.716,73.403
				C618.313,622.306,618.122,621.092,617.938,619.876z"/>
		</g>
		<g>
			<path d="M696.608,580.682c-0.188-0.362-0.378-0.723-0.565-1.085c-17.226,23.01-39.857,42.002-65.545,54.89
				c0.179,0.32,0.358,0.639,0.537,0.959C656.698,622.562,679.329,603.624,696.608,580.682z"/>
		</g>
		<g>
			<path d="M580.066,464.656c-2.794,3.043-6.066,5.82-9.408,8.444c-9.952,7.811-22.019,16.177-36.075,18.992
				c-7.972,1.596-16.12,1.259-22.325,0.788c-14.142-1.072-25.086-3.604-34.442-7.97c-9.306-4.342-16.835-10.651-21.835-18.087
				c-0.354,0.128-0.704,0.265-1.058,0.391c5.11,7.698,12.848,14.224,22.426,18.693c9.481,4.424,20.547,6.989,34.824,8.069
				c2.771,0.21,5.923,0.395,9.279,0.395c4.247,0,8.818-0.294,13.345-1.201c14.281-2.861,26.485-11.314,36.537-19.207
				c3.374-2.648,6.825-5.578,9.78-8.865C580.767,464.951,580.416,464.804,580.066,464.656z"/>
		</g>
		<g>
			<path d="M438.336,549.244c0.023,0.29,0.263,0.509,0.548,0.509l0.043-0.002c0.303-0.021,0.529-0.286,0.507-0.589
				c-1.771-23.343-13.597-45.853-31.328-61.234c-0.31,0.214-0.622,0.425-0.93,0.642C424.811,503.767,436.58,526.092,438.336,549.244
				z"/>
		</g>
		<g>
			<path d="M417.648,666.964c-0.668,1.19-1.339,2.39-2,3.6c0.127,0.547,0.251,1.09,0.377,1.632c0.848-1.58,4.548-8.191,5.484-9.954
				c9.977-18.795,14.883-39.969,14.187-61.234c-0.01-0.273-0.216-0.505-0.489-0.528c-0.268-0.023-0.523,0.142-0.593,0.406
				l-13.632,51.733c-1.323,5.017-2.691,10.206-5.704,14.51c-0.104,0.148-0.224,0.276-0.331,0.42
				c0.108,0.464,0.215,0.924,0.322,1.384c0.319-0.389,0.634-0.781,0.909-1.173c3.127-4.465,4.583-9.989,5.868-14.862l12.615-47.873
				c-0.006,19.727-4.858,39.25-14.122,56.702C419.605,663.48,418.627,665.222,417.648,666.964z"/>
		</g>
		<g>
			<path d="M441.715,634.37c-0.286-0.097-0.6,0.047-0.704,0.331c-5.508,15.161-13.714,29.496-23.941,42.052
				c0.103,0.454,0.199,0.902,0.3,1.353c10.559-12.809,19.028-27.486,24.674-43.032C442.148,634.791,442.001,634.475,441.715,634.37z
				"/>
		</g>
		<g>
			<path d="M621.636,618.738c-0.013-0.237-0.023-0.473-0.035-0.709c0.002,0.228,0.018,0.456,0.021,0.685L621.636,618.738z"/>
		</g>
		<g>
			<path d="M621.477,605.09c0.06-1.772,0.151-3.548,0.242-5.324c0.339-6.654,0.692-13.535-0.599-20.184
				c-0.184-0.943-0.859-2.124-1.749-2.453c-0.468-0.17-0.951-0.097-1.357,0.226c-0.526,0.419-0.637,1.103-0.702,1.509l0,0
				c-1.892,11.946-0.144,22.307,1.706,33.278c0.172,1.023,0.339,2.084,0.511,3.123c0.129,0.068,0.231,0.151,0.291,0.255
				c0.231,0.405,0.458,0.813,0.688,1.219c0.039-2.927,0.294-6.252,0.938-9.73C621.457,606.369,621.455,605.726,621.477,605.09z
				 M620.62,599.71c-0.09,1.783-0.181,3.565-0.243,5.341c-0.092,2.71-0.114,5.438-0.062,8.174c-0.071-0.423-0.143-0.846-0.214-1.267
				c-1.835-10.878-3.568-21.155-1.704-32.923c0.054-0.337,0.122-0.681,0.3-0.82c0.115-0.092,0.198-0.09,0.292-0.056
				c0.413,0.155,0.915,0.932,1.05,1.632C621.305,586.31,620.957,593.12,620.62,599.71z"/>
		</g>
		<g>
			<path d="M629.85,589.602c-0.056-0.202-0.221-0.354-0.426-0.393c-0.206-0.039-0.416,0.039-0.542,0.206
				c-4.175,5.497-6.357,11.754-7.438,17.592c-0.643,3.478-0.898,6.803-0.938,9.73c0.374,0.658,0.743,1.318,1.116,1.976
				c-0.004-0.229-0.02-0.456-0.021-0.685c0-0.029-0.003-0.057-0.003-0.085c-0.043-7.483,1.24-18.11,7.466-26.918
				c1.317,6.226-0.434,12.753-2.131,19.078c-0.293,1.091-0.584,2.178-0.859,3.258c-0.816,3.206-1.481,6.436-2.006,9.682
				c0.293,0.52,0.588,1.039,0.88,1.559c0.547-3.68,1.268-7.341,2.191-10.97c0.274-1.076,0.564-2.156,0.856-3.243
				C629.832,603.539,631.733,596.456,629.85,589.602z"/>
		</g>
	</g>
	<g>
		<path fill="#8C4C20" d="M561.92,290.72c1.659,1.478,3.41,2.938,5.328,4.344c0.644-4.797-0.277-9.737,0.678-14.482
			c0.955-4.745,4.863-9.568,9.666-8.97c-0.862,8.36-1.723,16.72-2.584,25.08c-0.13,1.265-0.257,2.573,0.134,3.783
			c0.391,1.21,1.443,2.303,2.715,2.32c0.255-4.339,6.393-18.667,12.813-13.386c3.839,3.158-3.539,12.459-5.189,15.773
			c-1.125,2.258-2.261,4.929-1.158,7.203c1.295,2.665,2.272,5.727,3.655,8.291c8.633,16.002,5.946,31.999-0.198,47.885
			c-3.067,7.932-7.866,14.919-13.247,21.471c-8.697,10.587-8.077,7.797-9.23,21.503c-0.146,1.735-0.631,3.457-1.106,5.144
			c-0.525,1.867-1.842,3.138-3.808,2.945c-3.028-0.297-4.597,1.039-5.272,3.823c-0.079,0.324-0.342,0.605-0.528,0.899
			c-0.836,1.322-2.792,1.361-3.502,0.08c-2.471-4.452-3.715-9.074-2.026-14.127c0.557-1.665,0.951-3.392,1.605-5.016
			c1.071-2.658,2.71-4.907,5.193-6.474c2.675-1.689,5.361-3.367,7.965-5.162c4.383-3.021,8.201-6.665,11.181-11.082
			c1.367-2.026,2.594-4.212,3.478-6.483c2.557-6.564-0.907-14.841-7.37-17.795c-2.254-1.03-4.661-1.568-7.192-1.084
			c-3.121,0.596-6.155,1.399-8.989,2.921c-2.525,1.356-4.715,2.965-6.211,5.51c-1.244,2.117-2.724,4.1-4.168,6.092
			c-1.827,2.52-3.239,3.299-4.09,2.544c-1.245-1.105-0.983-2.499-0.893-3.801c0.339-4.93,0.252-9.841-0.31-14.75
			c-0.566-4.946-2.108-9.6-4.15-14.107c-1.473-3.249-3.584-6.05-6.218-8.434c-3.217-2.912-6.924-4.859-11.342-5.007
			c-3.156-0.106-6.321-0.002-9.481,0.053c-7.735,0.135-15.469,0.341-23.204,0.428c-4.246,0.048-8.358-0.811-12.473-1.883
			c-11.115-2.896-18.456-9.936-22.406-20.468c-2.74-7.306-4.12-14.805-2.039-22.718c4.184-15.914,18.913-24.896,34.842-20.727
			c3.121,0.817,6.135,1.417,9.334,1.022c1.046-0.129,2.109-0.106,3.158-0.214c12.559-1.291,24.494,1.042,35.963,6.142
			c2.569,1.142,5.175,2.201,7.764,3.3C549.152,277.415,554.658,284.248,561.92,290.72z"/>
	</g>
	<g>
		<path fill="#FFFFFF" d="M560.984,516.734c-0.294-14.348-0.649-30.175-0.918-46.004c-0.06-3.505,0.099-7.02,0.319-10.52
			c0.131-2.082,2.538-3.879,4.53-3.374c2.021,0.513,4.041,1.186,5.896,2.117c0.765,0.384,1.614,1.665,1.553,2.471
			c-0.826,10.902-0.064,21.789,0.156,32.678c0.37,18.291,0.548,36.591,1.289,54.867c0.828,20.407,2.987,40.675,8.273,60.505
			c2.455,9.208,5.664,18.122,9.718,26.73c5.937,12.606,14.012,23.547,25.23,32.003c1.404,1.059,2.758,2.184,4.148,3.262
			c7.476,5.802,7.435,5.811,9.805,15.309c3.323,13.316,5.758,26.813,8.166,40.309c2.409,13.505,5.091,26.937,8.507,40.232
			c3.762,14.641,7.31,29.337,10.834,44.038c3.937,16.423,8.881,32.561,13.519,48.788c3.188,11.153,6.158,22.369,9.186,33.568
			c0.365,1.351,0.551,2.761,0.704,4.157c0.433,3.948-1.444,6.865-4.569,8.881c-2.997,1.933-6.414,2.857-10.036,2.765
			c-5.978-0.152-11.989,0.022-17.928-0.546c-15.091-1.441-30.222-1.658-45.343-1.637c-19.349,0.027-38.705,0.373-58.043,1.034
			c-10.897,0.372-21.781,1.127-32.693,0.974c-16.9-0.237-33.718-1.536-50.427-4.096c-2.771-0.424-5.462-1.34-8.221-1.872
			c-3.098-0.597-5.099-2.526-6.051-5.3c-2.394-6.981-4.989-13.937-6.713-21.094c-4.446-18.46-8.146-37.086-11.045-55.861
			c-1.824-11.814-3.804-23.606-5.471-35.442c-1.667-11.839-3.327-23.694-4.423-35.595c-0.681-7.391-2.176-14.605-3.488-21.856
			c-1.388-7.671-1.591-15.384-1.806-23.116c-0.102-3.645,1.107-6.743,3.517-9.643c4.267-5.134,8.171-10.571,12.198-15.904
			c6.398-8.473,11.414-17.728,15.535-27.493c3.558-8.433,6.549-17.064,9.341-25.776c3.9-12.172,5.361-24.727,5.937-37.402
			c0.415-9.139,0.077-18.253-0.838-27.395c-1.649-16.458-4.363-32.763-6.424-49.158c-1.053-8.372-3.918-31.397-4.251-34.541
			c-0.258-2.437-0.367-4.902-0.349-7.354c0.019-2.642,2.888-5.315,5.631-5.275c1.386,0.02,3.139,0.839,3.447,1.896
			c1.286,4.41,1.929,8.919,2.27,13.497c0.81,10.874,1.459,21.769,2.654,32.602c1.234,11.18,2.961,22.308,4.62,33.438
			c1.192,7.997,2.724,15.944,3.913,23.941c0.615,4.135,2.544,7.304,6.041,9.422c3.3,1.999,6.651,3.971,10.159,5.559
			c10.405,4.708,21.344,6.986,32.798,6.62c7.046-0.225,14.051-0.678,20.877-2.683c4.423-1.299,8.564-3.071,12.341-5.784
			c7.301-5.242,7.353-5.182,6.972-13.781c-0.171-3.867-0.367-7.732-0.579-11.597C560.719,544.95,559.859,531.601,560.984,516.734z
			 M456.739,488.27c0.794-4.824,0.971-9.616,0.126-14.399c-0.06-0.341-0.108-0.728-0.3-0.995c-0.387-0.538-0.869-1.009-1.312-1.507
			c-0.307,0.511-0.936,1.073-0.866,1.525c0.375,2.398,1.021,4.753,1.391,7.151C456.199,482.772,456.427,485.528,456.739,488.27z"/>
	</g>
	<g>
		<path fill="#C28953" d="M519.812,753.69c-5.242-23.945-10.485-47.891-15.728-71.836c6.322-8.847,6.857-20.892,3.561-31.254
			c-0.752-2.364-1.232-4.803-2.07-7.142c-0.573-1.601-1.222-3.768-2.707-4.752c-1.608-1.065-3.938-0.739-5.732-0.506
			c-4.327,0.563-8.567,1.651-12.793,2.737c-4.672,1.2-2.44,7.714-2.347,11.089c0.169,6.128,1.047,12.238,2.618,18.164
			c0.989,3.73,2.559,7.757,6.022,9.459c1.271,0.625,2.71,0.879,3.937,1.589c3.576,2.068,4.034,6.871,4.832,10.508
			c1.256,5.725,2.411,11.471,3.407,17.247c2.567,14.895,4.122,29.985,7.683,44.674c0.805,3.321,1.772,6.736,3.984,9.342
			c0.888,1.047,2.168,1.996,3.517,1.742c1.639-0.31,2.448-2.195,2.614-3.855C520.854,758.479,520.331,756.06,519.812,753.69z
			 M489.812,672.32c-0.43-0.371-0.724-0.871-0.995-1.37c-0.913-1.677-1.406-3.441-1.697-5.331c-0.523-3.386-0.95-6.786-1.41-10.182
			c-0.209-1.539-0.472-3.073-0.727-4.606c-0.324-1.948-1.952-5.655,0.29-7.011c4.03-2.437,3.573,4.71,3.814,6.517
			c0.362,2.709,0.93,5.384,1.443,8.067c0.57,2.977,1.354,5.928,1.539,8.966c0.079,1.292,0.187,2.783,0.13,4.05
			C492.141,672.737,490.971,673.321,489.812,672.32z M495.011,667.208c-1.161-3.872-1.821-7.867-2.435-11.856
			c-0.308-1.999-0.601-4.001-0.942-5.995c-0.252-1.473-0.931-2.911-0.956-4.421c-0.029-1.786,2.404-4.446,3.708-2.058
			c0.934,1.709,0.612,4.256,1.005,6.125c0.575,2.736,1.224,5.457,1.879,8.174c0.908,3.77,2.514,7.96,2.604,11.87
			C499.998,674.489,495.746,669.661,495.011,667.208z M503.725,668.136c-1.04-1.696-0.74-3.184-1.057-4.977
			c-0.399-2.26-1.135-4.515-1.713-6.736c-0.674-2.594-1.37-5.183-2.08-7.767c-0.547-1.99-1.985-4.914-0.433-6.807
			c0.561-0.684,1.521-1.014,2.383-0.819c2.002,0.453,2.364,3.249,2.78,4.888c0.364,1.431,0.728,2.863,1.092,4.295
			c0.29,1.141,0.964,2.618,0.964,3.789c1.113,4.377,1.576,8.743,1.041,13.246c-0.103,0.866-0.486,1.905-1.352,2
			C504.661,669.323,504.088,668.728,503.725,668.136z"/>
	</g>
	<g>
		<path fill="#C28953" d="M542.547,739.013c-0.597-24.505-1.195-49.01-1.793-73.516c7.888-7.485,10.702-19.209,9.435-30.009
			c-0.289-2.464-0.297-4.95-0.675-7.405c-0.259-1.68-0.484-3.932-1.755-5.18c-1.376-1.351-3.726-1.473-5.531-1.585
			c-4.355-0.27-8.724-0.007-13.08,0.256c-4.815,0.29-3.861,7.109-4.411,10.441c-0.998,6.049-1.297,12.214-0.88,18.33
			c0.262,3.85,1.038,8.101,4.115,10.431c1.13,0.855,2.494,1.378,3.563,2.308c3.118,2.71,2.655,7.512,2.747,11.234
			c0.145,5.859,0.188,11.72,0.068,17.581c-0.31,15.111-1.65,30.222-0.945,45.32c0.16,3.414,0.46,6.95,2.137,9.929
			c0.673,1.196,1.749,2.372,3.122,2.378c1.668,0.007,2.821-1.69,3.299-3.288C542.66,743.913,542.606,741.439,542.547,739.013z"/>
	</g>
	<g>
		<path fill="#FFFFFF" d="M549.216,702.239c8.855-0.976,17.789-0.973,26.694-0.717c0.468,0.013,0.992,0.052,1.302,0.403
			c0.234,0.264,0.284,0.639,0.321,0.99c1.466,13.771-0.186,27.674-2.258,41.367c-1.143,7.552-2.447,15.195-5.696,22.108
			c-5.792,12.323-17.694,21.377-30.934,24.561c-17.456,4.198-37.003-1.953-48.909-15.392c-9.713-10.963-14.099-25.573-17.326-39.86
			c-1.451-6.422-2.873-13.465-1.047-19.965c0.877-3.124,1.285-3.836,4.209-3.762c3.152,0.079,6.368,0.786,9.596,0.784
			c14.02-0.006,27.73-3.462,41.336-6.456C534.016,704.646,541.564,703.082,549.216,702.239z"/>
	</g>
	<g>
		<path fill="#B9AC97" d="M523.988,801.855c-16.162,0-35.542-3.941-47.961-19.828c-9.464-12.109-11.212-28.146-12.617-41.033
			c-0.035-0.326-0.095-1.125-0.177-2.253c-1.542-20.919-3.024-24.443-3.769-24.68c-0.301-0.004-0.555-0.213-0.575-0.513
			c-0.019-0.303,0.219-0.563,0.522-0.582c5.784-0.369,11.673-0.483,17.368-0.595c8.973-0.174,18.253-0.354,27.264-1.538
			c9.824-1.289,19.762-2.953,29.375-4.564c3.445-0.578,6.89-1.153,10.337-1.716c17.037-2.779,31.386-4.764,46.038-5.419
			c0.139,0.002,0.293,0.047,0.402,0.15c0.108,0.101,0.171,0.243,0.173,0.393l0.506,37.429c0.12,8.868,0.245,18.041-2.466,26.733
			c-3.42,10.966-11.687,21.052-22.681,27.669c-9.641,5.803-21.3,9.201-34.656,10.101
			C528.807,801.765,526.434,801.855,523.988,801.855z M460.761,713.984c1.249,2.247,2.393,8.743,3.567,24.677
			c0.082,1.108,0.14,1.892,0.174,2.212c1.39,12.749,3.118,28.614,12.389,40.474c14.004,17.914,37.145,20.305,54.105,19.166
			c13.179-0.889,24.672-4.237,34.162-9.946c10.767-6.482,18.857-16.342,22.198-27.055c2.659-8.527,2.535-17.609,2.416-26.394
			l-0.498-36.859c-14.403,0.677-28.564,2.642-45.344,5.38c-3.445,0.561-6.888,1.138-10.332,1.714
			c-9.621,1.611-19.57,3.277-29.412,4.57c-9.074,1.19-18.384,1.372-27.387,1.546C471.538,713.574,466.109,713.679,460.761,713.984z"
			/>
	</g>
	<g>
		<path fill="#B9AC97" d="M479.44,734.289c-5.635,0-10.933-0.408-16.098-1.907c-0.291-0.086-0.46-0.391-0.375-0.681
			c0.084-0.292,0.382-0.462,0.682-0.376c7.249,2.107,14.84,2.017,23.295,1.69c35.384-1.347,71.084-4.667,106.107-9.865
			c0.297-0.045,0.58,0.161,0.624,0.462c0.045,0.301-0.162,0.58-0.463,0.625c-35.062,5.206-70.802,8.529-106.227,9.877
			C484.397,734.214,481.887,734.289,479.44,734.289z"/>
	</g>
	<g>
		<path fill="#2A604A" d="M483.964,831.42c-4.288-1.491-8.989-0.835-13.509-1.266c-7.772-0.742-15.153-4.92-19.789-11.202
			c-2.416-3.274-3.881-8.365-0.825-11.052c3.102-2.728,7.899-0.582,11.39,1.626c2.773,1.755,5.547,3.509,8.32,5.263
			c0.969,0.613,2.01,1.248,3.156,1.239c1.147-0.009,2.361-0.966,2.186-2.1c-0.075-0.485-0.379-0.901-0.688-1.283
			c-3.771-4.657-9.44-7.25-14.501-10.459c-10.981-6.96-19.677-17.465-24.464-29.553c-0.436-1.1-0.837-2.359-0.335-3.43
			c0.696-1.486,2.68-1.759,4.317-1.646c11.271,0.781,20.031,9.725,27.634,18.082c5.568,6.12,11.136,12.241,16.705,18.361
			c3.046,3.348,6.25,6.807,10.473,8.435c2.424-3.77,1.351-8.839-0.783-12.78c-2.134-3.941-5.217-7.353-6.964-11.48
			c-2.049-4.841-2.067-10.504-0.049-15.358c0.841-2.022,2.607-4.183,4.749-3.728c1.428,0.303,2.347,1.67,3.01,2.971
			c6.119,12.003,3.27,27.072,9.357,39.092c0.774,1.529,2.412,3.214,3.911,2.384c0.907-0.502,1.152-1.668,1.349-2.686
			c0.382-1.974,0.936-3.915,1.654-5.793c0.22-0.575,0.552-1.225,1.16-1.321c0.535-0.085,1.02,0.311,1.385,0.712
			c3.004,3.302,3.156,8.408,1.769,12.651c-1.387,4.243-4.056,7.923-6.27,11.799c-2.214,3.876-4.037,8.261-3.462,12.688
			c0.923,7.105-5.599,4.87-8.833,1.213C492.176,838.456,489.896,833.483,483.964,831.42z"/>
	</g>
	<g>
		<path fill="#241B14" d="M1059.086,629.433c-1.539,8.599-5.498,32.175-6.092,35.32c-2.067,10.733-4.443,21.421-6.752,32.109
			c-0.352,1.672-3.651,17.418-5.058,23.576c-0.88,3.761-1.892,7.5-3.079,11.173c-0.528,1.649-1.451,3.211-2.441,4.64
			c-1.738,2.419-4.267,4.047-7.214,3.607c-6.598-1.034-13.284-1.254-19.815-2.815c-5.103-1.231-10.337-2.001-15.483-3.079
			c-3.101-0.66-6.224-1.298-9.171-2.375c-2.287-0.814-4.443-2.133-6.4-3.563c-2.067-1.474-3.233-3.673-3.431-6.29
			c-0.066-1.056-0.11-2.111-0.198-3.585c0.286-2.375,0.462-5.19,0.968-7.961c1.144-6.268,7.918-43.634,10.315-55.994
			c1.209-6.158,2.419-12.316,3.849-18.408c1.143-4.838,2.397-9.655,3.915-14.405c1.056-3.343,2.177-6.686,3.585-9.897
			c1.913-4.311,5.014-7.61,9.303-9.699c2.221-1.078,4.421-2.177,6.598-3.321c5.278-2.749,8.775-6.972,10.227-12.756
			c0.66-2.683,7.17-31.89,8.665-38.026c0.748-3.079,1.781-6.07,2.903-9.039c0.792-2.111,2.617-3.365,4.772-3.717
			c6.774-1.122,12.514,1.1,17.154,5.982c0.858,0.902,1.056,2.529,1.254,3.893c0.154,0.99-0.132,2.067-0.33,3.101
			c-2.221,12.646-4.267,25.314-7.148,37.85c-0.088,0.506-0.22,1.012-0.33,1.518c-0.484,2.045-0.792,4.135-1.254,6.202
			c-1.209,5.147,0.022,9.721,3.189,13.878c1.078,1.386,2.155,2.771,3.211,4.201C1058.734,616.897,1060.295,622.769,1059.086,629.433
			z"/>
	</g>
	<g>
		<path fill="#E16A1A" d="M1057.139,547.144c-2.221,12.646-4.266,25.314-7.148,37.85c-2.463,0.594-5.08,0.616-7.588,0.418
			c-8.335-0.616-14.053-3.805-17.748-8.49c0.88-3.827,5.234-23.862,6.73-29.998c0.748-3.079,1.782-6.07,2.903-9.039
			c0.132-0.33,0.264-0.638,0.462-0.924c0.901-1.561,2.485-2.507,4.311-2.793c6.774-1.122,12.514,1.1,17.155,5.982
			c0.506,0.55,0.792,1.342,0.968,2.199c0.132,0.55,0.198,1.144,0.286,1.693C1057.623,545.032,1057.337,546.11,1057.139,547.144z"/>
	</g>
	<g>
		<path fill="#E16A1A" d="M1054.709,654.507c-0.55,3.167-1.122,6.334-1.716,9.479c-2.067,10.732-4.443,21.421-6.752,32.109
			c-1.386,0.594-2.793,1.1-4.201,1.562c-16.143,5.256-33.847,5.696-50.232,1.187c-3.827-1.034-7.675-2.419-10.667-5.036
			c-1.1-0.946-2.023-2.023-2.815-3.211c2.243-12.404,4.509-24.808,6.906-37.168c1.209-6.158,2.419-12.316,3.849-18.408
			c3.541,6.048,5.784,11.305,13.261,15.131c8.797,4.508,18.98,5.322,28.855,5.806
			C1039.072,656.354,1047.188,656.552,1054.709,654.507z"/>
	</g>
	<g>
		<path fill="#E16A1A" d="M211.481,410.519c0.351,0.166,0.755,0.229,0.945,0.465c2.068,2.567,2.551,5.783,3.203,8.823
			c1.62,7.555,3.114,15.149,4.291,22.785c1.927,12.499,3.613,25.036,5.293,37.572c0.7,5.219,1.188,10.47,1.653,15.717
			c0.62,7.001,1.117,14.013,1.679,21.019c0.188,2.347,1.621,3.902,3.594,4.826c2.216,1.039,4.543,1.878,6.882,2.614
			c3.349,1.054,6.801,1.792,10.116,2.938c2.464,0.852,4.708,0.903,7.14-0.087c5.53-2.251,11.158-4.257,16.686-6.513
			c19.189-7.829,38.427-15.548,57.505-23.641c19.734-8.371,39.18-17.388,58.026-27.647c1.522-0.828,3.19-1.403,4.825-2.001
			c1.051-0.384,3.277,0.467,3.74,1.427c0.91,1.889,1.972,3.753,2.536,5.751c1.622,5.745,3.087,11.536,4.507,17.335
			c5.265,21.498,10.266,43.061,16.509,64.31c5.054,17.202,10.558,34.248,17.243,50.895c2.097,5.222,4.122,10.464,5.308,15.987
			c0.907,4.223-0.681,7.882-4.274,9.824c-0.617,0.334-1.253,0.64-1.903,0.905c-10.426,4.249-20.367,9.507-30.426,14.525
			c-3.456,1.724-6.971,3.359-10.559,4.783c-16.017,6.356-31.56,13.745-47.038,21.287c-1.263,0.615-2.52,1.259-3.83,1.758
			c-3.576,1.365-7.016,3.751-11.006,3.013c-5.869-1.086-11.724-2.478-16.679-6.125c-1.121-0.825-2.133-1.837-3.054-2.888
			c-1.156-1.319-2.195-2.745-3.234-4.162c-25.163-34.304-49.948-68.87-72.166-105.19c-6.234-10.191-12.007-20.662-18.126-30.924
			c-4.068-6.824-6.022-14.064-6.057-22.049c-0.034-7.721-0.798-15.439-1.235-23.159c-0.199-3.509-0.43-7.017-0.561-10.528
			c-0.405-10.889-0.867-21.766-1.72-32.642c-0.768-9.795-0.552-19.667-0.706-29.507C210.582,411.52,211.173,411.015,211.481,410.519
			z"/>
	</g>
	<g>
		<g>
			<path fill="#7B431C" d="M321.831,668.46c-1.372-0.155-3.556-2.306-4.112-2.917c-2.402-2.641-3.666-6.196-5.178-9.3
				c-3.135-6.438-6.247-12.888-9.333-19.35c-5.851-12.253-11.609-24.549-17.25-36.9c-9.949-21.784-19.552-43.732-28.542-65.931
				c3.095-2.092,20.302-9.106,41.862-17.895c31.392-12.798,72.547-29.575,99.797-43.106c-0.136-0.339-0.29-0.673-0.442-1.008
				c-27.204,13.512-68.374,30.295-99.771,43.096c-10.906,4.446-21.851,8.819-32.655,13.509c-2.714,1.178-5.785,2.222-8.277,3.842
				c-1.091,0.709-1.045,1.302-2.795,1.719c-1.796,0.427-3.632,0.724-5.467,0.918c-3.502,0.371-7.052,0.327-10.53-0.248
				c-5.962-0.985-11.72-3.575-16.091-7.747c0.312,5.172,6.978,7.326,11.09,8.577c5.85,1.78,12.122,1.543,18.147,1.08
				c1-0.077,2.028-0.167,2.924-0.617c2.332-1.17,3.555,4.093,4.236,5.747c1.282,3.111,2.576,6.217,3.881,9.319
				c2.717,6.46,5.48,12.9,8.283,19.323c6.04,13.845,12.261,27.612,18.614,41.317c5.131,11.068,10.349,22.096,15.641,33.088
				c2.646,5.496,5.309,10.984,7.99,16.463c0.975,2.035,2.254,3.979,3.057,6.062c-4.795-5.403-9.248-11.108-13.324-17.072
				c-0.937-1.371-1.868-2.771-3.11-3.873s-2.858-1.888-4.514-1.772c-0.51,1.125,0.058,2.42,0.624,3.517
				c1.787,3.461,3.652,6.883,5.593,10.26c2.555,4.445,5.258,8.836,8.615,12.711c2.847,3.286,6.214,6.261,10.099,8.261
				c3.797,1.955,8.043,3.587,12.369,3.741c1.873,0.067,3.761-0.053,5.586-0.482c5.163-1.213,9.41-4.763,13.446-8.203
				c0.639-0.545,1.292-1.106,1.706-1.836c0.414-0.73,0.56-1.578,0.666-2.411c0.756-5.985-0.275-12.04-1.431-17.961
				c-0.181-0.929-0.384-1.898-0.98-2.633c-0.595-0.736-1.713-1.142-2.516-0.641c-0.949,0.593-0.92,1.957-0.81,3.071
				c0.561,5.68,0.259,11.445-0.892,17.036c-0.231,1.123-0.717,2.458-1.85,2.639c-1.254,0.2-2.136-1.169-2.636-2.336
				c-3.817-8.903-6.406-18.337-10.89-26.924c-0.428-0.819-1.265-1.767-2.086-1.344c-0.161,5.019,0.833,10.073,2.883,14.657
				c1.014,2.267,2.314,4.564,2.172,7.044c-0.08,1.402-1.034,3.024-2.43,2.863c-0.54-0.063-1.01-0.388-1.437-0.725
				c-3.038-2.396-5.093-5.803-6.904-9.222c-2.456-4.634-4.59-9.438-6.383-14.367c-0.678-1.864-1.442-3.911-3.179-4.868
				c-0.34,9.061,2.662,17.88,5.72,26.417c0.331,0.923,2.287,4.606,1.522,5.238C322.348,668.442,322.106,668.491,321.831,668.46z"/>
		</g>
		<g>
			<path fill="#7B431C" d="M309.122,608.481c0.079,0.225,0.291,0.365,0.518,0.365c0.061,0,0.124-0.011,0.184-0.032
				c38.095-13.53,76.084-28.682,113.069-45.054c-0.107-0.354-0.214-0.708-0.321-1.062c-36.997,16.383-75.003,31.547-113.115,45.082
				C309.17,607.88,309.02,608.193,309.122,608.481z"/>
		</g>
		<g>
			<path fill="#7B431C" d="M424.969,570.539c-34.032,12.907-67.988,27.029-101.041,42.059c-0.276,0.125-0.398,0.451-0.273,0.728
				c0.092,0.202,0.292,0.322,0.5,0.322c0.076,0,0.154-0.015,0.228-0.049c33.015-15.013,66.932-29.121,100.924-42.012
				C425.197,571.237,425.079,570.889,424.969,570.539z"/>
		</g>
	</g>
	<g>
		<path fill="#E16A1A" d="M752.868,866.04c-1.892,3.057-4.575,5.322-7.918,6.686c-1.298,0.528-2.881,0.572-3.981,1.32
			c-4.662,3.189-9.809,3.299-15.153,3.255c-14.779-0.154-29.536-0.044-39.829-0.044c-19.222,0.396-49.88,1.034-50.429,1.034
			c-3.299,0.066-6.598,0-9.831-0.901c-1.914-0.55-3.651-2.683-3.673-4.641c-0.088-4.662,1.188-9.039,2.991-13.24
			c0.506-1.143,1.276-2.133,2.265-2.881c0.704-0.55,1.495-0.968,2.353-1.231c3.013-0.924,6.114-1.671,9.215-2.265
			c14.493-2.705,29.03-5.169,43.678-6.972c12.536-1.561,25.028-3.585,37.564-5.212c4.509-0.594,9.149-1.1,13.657-0.77
			c6.818,0.506,12.91,3.145,17.638,8.357c2.199,2.419,3.431,5.344,3.871,8.534C755.727,860.344,754.562,863.335,752.868,866.04z"/>
	</g>
	<g>
		<path fill="#241B14" d="M542.683,874.683c-1.034,0.132-2.067,0.33-3.079,0.594c-4.464,1.012-8.621,2.925-12.8,4.839
			c-5.169,2.375-10.513,3.915-16.055,3.519c-7.874,0.286-14.735-2.133-21.135-6.092c-3.959-2.419-7.17-5.63-9.589-9.589
			c-2.463-3.959-4.091-8.225-3.805-12.932c0.638-10.315,4.574-19.046,13.042-25.292c1.386-1.034,3.057-1.781,4.706-2.265
			c0.286-0.088,0.574-0.169,0.858-0.242c3.432-0.883,6.906-1.693,10.315-2.705c8.181-2.419,15.219,0.066,21.729,4.86
			c3.431,2.551,5.982,5.872,8.093,9.589c2.793,4.97,4.64,10.292,5.454,15.857c0.858,5.916,1.671,11.81,3.871,17.418
			C544.552,872.902,543.474,874.573,542.683,874.683z"/>
	</g>
	<g>
		<path fill="#E16A1A" d="M603.786,873.215c-0.538,1.659-1.178,3.922-2.019,6.108c-0.408,1.061-1.387,1.301-2.366,0.874
			c-0.407-0.178-0.977-0.344-1.137-0.676c-2.509-5.203-3.845-10.673-3.522-16.481c0.111-2,1.103-3.548,2.588-4.864
			c0.997-0.884,3.127-0.575,3.646,0.571C602.965,863.142,603.783,867.758,603.786,873.215z"/>
	</g>
	<g>
		<path fill="#E16A1A" d="M589.158,866.938c-1.229,4.154-2.146,8.89-5.47,12.433c-0.558,0.595-1.561,0.822-2.4,1.01
			c-0.953,0.213-2.587-1.696-2.58-2.83c0.029-5.283,0.89-10.375,3.03-15.195c0.818-1.842,2.819-3.229,4.198-2.805
			c2.057,0.633,3.677,3.327,3.363,5.568C589.233,865.587,589.223,866.064,589.158,866.938z"/>
	</g>
	<g>
		<path fill="#E16A1A" d="M618.693,867.013c-0.28,3.336-0.032,6.771-2.42,9.9c-0.785,1.029-1.795,1.384-3.353,0.844
			c-0.563-0.195-1.307-0.441-1.513-0.799c-3.745-6.507-4.022-13.158-1.173-19.85c0.272-0.638,1.976-1.319,3.027-1.329
			c1.054-0.01,2.528,0.611,3.115,1.276C619.061,860.091,618.515,863.585,618.693,867.013z"/>
	</g>
	<g>
		<path fill="#E16A1A" d="M575.992,866.545c-0.29,4.961-1.32,9.709-4.9,13.668c-0.242,0.267-1.124,0.202-1.638,0.067
			c-0.491-0.128-1.137-0.471-1.284-0.857c-0.376-0.985-0.921-2.139-0.673-3.062c1.127-4.194,2.392-8.367,3.896-12.459
			c0.265-0.722,1.933-1.453,2.871-1.374c0.62,0.053,1.177,1.512,1.601,2.405C576.087,865.399,575.961,866.003,575.992,866.545z"/>
	</g>
	<g>
		<path fill="#7B431C" d="M635.734,877.256c-0.05,0.351-0.11,0.682-0.176,1.034c-3.299,0.066-6.598,0-9.831-0.901
			c-1.914-0.55-3.651-2.683-3.673-4.641c-0.088-4.662,1.188-9.039,2.991-13.24c0.506-1.143,1.276-2.133,2.265-2.881
			c2.177,0.506,4.333,1.627,5.476,2.947c0.858,1.012,1.43,2.243,1.87,3.475C636.262,867.58,636.418,872.493,635.734,877.256z"/>
	</g>
	<g>
		<path fill="#E16A1A" d="M542.683,874.683c-1.034,0.132-2.067,0.33-3.079,0.594c-0.242-0.198-0.462-0.374-0.704-0.55
			c-7.544-5.564-17.309-6.774-26.282-9.391c-8.995-2.617-18.474-7.852-20.827-16.891c-0.638-2.441-0.704-4.992-0.594-7.522
			c0.176-4.75,1.1-9.787,3.629-13.702c3.409-0.968,6.906-1.693,10.315-2.705c8.181-2.419,15.219,0.066,21.729,4.86
			c3.431,2.551,5.982,5.872,8.093,9.589c2.793,4.97,4.64,10.292,5.454,15.857c0.858,5.916,1.671,11.81,3.871,17.418
			C544.552,872.902,543.474,874.573,542.683,874.683z"/>
	</g>
	<g>
		<path fill="#CD8C38" d="M876.441,917.892c-9.852-1.016-19.741-1.384-29.738,0.011c-3.973,0.555-7.947,0.223-11.925,0.397
			c-5.169,0.226-10.341,0.536-15.512,0.848c-1.989,0.12-3.987,0.467-5.971,0.503c-19.068,0.344-69.933,1.659-76.281,1.68
			c-13.498,0.046-86.452-1.334-109.448-1.77c-5.15-0.098-10.332,0.304-15.502,0.527c-2.783,0.12-5.575,0.438-8.355,0.51
			c-13.51,0.347-27.035,0.937-40.523,0.893c-27.381-0.088-54.821,0.833-82.122-0.675c-21.767-1.203-43.574,2.499-65.611,1.413
			c-11.002-0.542-22.004-1.084-33.006-1.626c-1.227-0.06-2.509-0.135-3.565-0.694c-7.71-4.081,0.211-30.64,0.617-37.331
			c0.074-1.225,0.189-2.544,1.077-3.484c1.029-1.089,2.774-1.343,4.364-1.515c23.685-2.557,46.008-0.221,69.593-0.683
			c14.695-0.288,29.297,1.323,43.987,1.187c22.241-0.208,94.462-0.004,108.339,0.262c7.925,0.152,15.889-0.294,23.836-0.488
			c1.987-0.048,3.992-0.349,5.964-0.228c20.965,1.287,42.081-0.22,63.119-0.302c31.628-0.123,62.767-1.033,94.241-0.644
			c33.721,0.416,67.459-0.293,101.12-2.126c2.608-0.142,5.708-0.092,7.19,1.818c0.897,1.156,0.896,2.665,0.861,4.068
			c-0.157,6.297,2.675,39.879-5.444,39.18c-1.971-0.17-3.924-0.545-5.897-0.693C886.715,918.543,881.577,918.232,876.441,917.892z"
			/>
	</g>
	<g>
		<g>
			<path fill="#7B431C" d="M638.975,910.341c-4.46,3.43-9.28,6.511-14.354,9.227c0.785-0.01,1.57-0.016,2.354-0.006
				c4.504-2.516,8.805-5.311,12.812-8.392c2.916-2.24,5.766-4.766,6.882-8.05c1.115-3.288-0.108-7.706-4.026-9.115
				c-1.849-0.668-3.863-0.513-5.605-0.318c-20.614,2.328-37.473,14.308-53.778,25.893c-0.774,0.551-1.569,1.11-2.354,1.667
				c0.684-0.017,1.368-0.027,2.052-0.046c0.356-0.253,0.722-0.51,1.076-0.761c16.17-11.49,32.892-23.372,53.159-25.661
				c1.588-0.18,3.412-0.322,4.983,0.245c3.169,1.14,4.268,4.942,3.305,7.779C644.457,905.818,641.749,908.206,638.975,910.341z"/>
		</g>
		<g>
			<path fill="#7B431C" d="M566.806,911.235c4.24-2.472,9.281-3.771,14.155-5.026c1.026-0.264,2.052-0.528,3.07-0.803
				c19.164-5.17,37.397-14.781,53.094-27.757c-0.156-0.009-0.312-0.012-0.467-0.021c-0.427-0.026-0.855-0.026-1.285-0.019
				c-15.35,12.482-33.09,21.725-51.702,26.745c-1.013,0.273-2.033,0.537-3.055,0.799c-4.963,1.278-10.093,2.601-14.489,5.163
				c-4.104,2.393-7.84,6.552-8.49,11.179c0.415,0,0.829-0.001,1.243-0.001C559.53,917.271,563.001,913.453,566.806,911.235z"/>
		</g>
		<g>
			<path fill="#7B431C" d="M550.359,899.583c10.356-0.668,21.064-1.357,31.022-4.437c11.2-3.465,20.625-9.636,29.247-16.793
				c-0.604,0.001-1.208,0-1.812-0.004c-8.257,6.73-17.265,12.486-27.844,15.758c-9.803,3.033-20.427,3.718-30.702,4.379
				c-3.568,0.23-7.257,0.468-10.863,0.799c-18.02,1.662-30.665,6.224-38.658,13.947c-2.587,2.501-4.543,5.281-5.795,8.138
				c0.44,0.013,0.88,0.023,1.32,0.035c1.201-2.601,3.015-5.135,5.387-7.43c7.779-7.517,20.168-11.965,37.873-13.595
				C543.121,900.049,546.8,899.811,550.359,899.583z"/>
		</g>
		<g>
			<path fill="#7B431C" d="M776.799,910.515c6.71-4.089,15.672-5.835,27.358-5.359c3.972,0.163,8.005,0.548,11.908,0.921
				c5.542,0.526,11.266,1.089,16.958,1.003c24.15-0.307,47.597-12.478,59.735-31.005c0.32-0.488,0.591-0.968,0.886-1.452
				c-0.483,0.026-0.967,0.041-1.451,0.067c-0.175,0.278-0.325,0.552-0.508,0.831c-11.922,18.2-34.955,30.156-58.68,30.459
				c-5.604,0.079-11.302-0.473-16.809-0.997c-3.919-0.376-7.973-0.762-11.981-0.928c-11.996-0.485-21.177,1.323-28.118,5.552
				c-4.061,2.475-7.617,6.393-9.437,10.835c0.44-0.008,0.881-0.015,1.321-0.023C769.753,916.369,773.052,912.799,776.799,910.515z"
				/>
		</g>
		<g>
			<path fill="#7B431C" d="M787.738,889.723c9.641-3.425,18.784-7.813,27.343-12.958c-0.723,0.001-1.445-0.009-2.168-0.009
				c-8.059,4.715-16.633,8.746-25.635,11.944c-3.917,1.392-8.026,2.68-11.998,3.926c-13.401,4.199-27.259,8.544-37.032,17.77
				c-2.922,2.758-4.664,5.26-5.483,7.869c-0.321,1.024-0.471,2.047-0.504,3.062c0.413-0.001,0.827,0.001,1.241,0.001
				c0.034-0.918,0.166-1.842,0.456-2.766c0.764-2.433,2.413-4.789,5.192-7.414c9.568-9.031,23.28-13.329,36.542-17.487
				C779.677,892.414,783.799,891.121,787.738,889.723z"/>
		</g>
		<g>
			<path fill="#7B431C" d="M835.665,876.575c-0.663,0.01-1.327,0.016-1.99,0.025c-3.345,2.498-6.47,5.209-9.061,8.333
				c-2.416,2.914-2.877,5.7-1.231,7.453c1.104,1.175,2.952,1.69,5.646,1.576c8.972-0.391,17.014-4.744,24.368-9.392
				c4.395-2.778,8.673-5.706,12.85-8.745c-0.679,0.024-1.359,0.036-2.039,0.06c-3.758,2.696-7.597,5.302-11.531,7.787
				c-7.2,4.551-15.057,8.814-23.71,9.19c-2.266,0.107-3.796-0.288-4.635-1.181c-1.86-1.982,0.507-5.167,1.277-6.095
				C828.434,882.184,831.934,879.268,835.665,876.575z"/>
		</g>
		<g>
			<path fill="#7B431C" d="M858.047,910.835c10.778-2.356,24.192-5.286,35.472-11.256c3.721-1.969,7.064-4.225,9.98-6.691
				c-0.01-0.528-0.021-1.048-0.033-1.56c-3.044,2.702-6.567,5.181-10.581,7.306c-11.122,5.887-24.436,8.795-35.133,11.132
				c-9.573,2.089-20.535,4.5-30.139,8.926c1.068-0.059,2.137-0.121,3.205-0.175C839.648,914.863,849.421,912.718,858.047,910.835z"
				/>
		</g>
		<g>
			<path fill="#7B431C" d="M672.04,893.308c5.248-4.946,10.422-10.13,14.106-15.767c-0.488,0.012-0.976,0.02-1.464,0.032
				c-3.597,5.325-8.535,10.262-13.545,14.983c-7.876,7.423-17.487,16.511-19.87,27.533c0.419,0.01,0.839,0.018,1.259,0.028
				C654.914,909.48,664.321,900.584,672.04,893.308z"/>
		</g>
		<g>
			<path fill="#7B431C" d="M717.661,898.675c6.509-3.402,13.653-5.992,20.562-8.496c6.509-2.36,13.239-4.8,19.469-7.923
				c3.397-1.703,6.471-3.597,9.231-5.623c-0.657,0.004-1.313,0.013-1.97,0.018c-2.393,1.662-5.022,3.219-7.872,4.648
				c-6.161,3.091-12.854,5.515-19.327,7.863c-6.95,2.519-14.136,5.125-20.723,8.565c-9.361,4.893-17.67,11.598-24.028,19.396
				c-1.017,1.247-1.98,2.543-2.939,3.823c0.482,0.01,0.965,0.022,1.448,0.032c0.816-1.082,1.644-2.164,2.496-3.21
				C700.267,910.09,708.445,903.488,717.661,898.675z"/>
		</g>
	</g>
	<g opacity="0.5">
		<path fill="#FFFFFF" d="M114.023,847.734c-1.051,9.927-2.501,20.06-0.175,29.65c2.83,11.669,9.717,22.238,18.523,30.298
			c12.43,11.378,28.392,18.204,44.608,22.786c6.914,1.954,13.974,3.544,21.149,3.906c7.165,0.362,14.328-0.505,21.459-1.289
			c68.606-7.542,138.042-7.512,206.642,0.089c3.01,0.333,6.232,0.644,8.908-0.774c2.269-1.203,3.758-3.452,5.149-5.611
			c6.315-9.796,12.629-19.592,18.944-29.387c3.213-4.984,6.52-10.235,7.007-16.144c0.54-6.549-2.466-12.84-3.292-19.359
			c-0.964-7.602,0.975-15.796-2.382-22.685c-4.334-8.896-15.304-11.714-24.575-15.174c-20.429-7.625-37.269-22.395-56.157-33.292
			c-6.829-3.94-14.013-7.405-21.674-9.266c-8.539-2.074-17.418-2.1-26.191-2.597c-22.718-1.287-45.25-5.819-66.699-13.416
			c-13.36-4.732-32.066-1.067-44.906,3.941c-14.386,5.611-21.862,18.009-35.686,24.799c-12.047,5.917-24.247,10.094-37.165,13.58
			c-12.039,3.25-16.054,0.216-21.419-11.793c-5.883-13.168-9.437-27.372-10.448-41.759c-8.669,1.343-9.403,15.455-17.69,18.333
			c-2.422,0.841-5.672,0.917-6.613,3.302c-0.439,1.112-0.158,2.364,0.14,3.522c1.745,6.774,3.934,13.873,2.096,20.622
			c-0.682,2.504-2.073,5.015-4.435,6.093c-3.876,1.769-8.532-0.965-12.624,0.221c-4.796,1.39-6.466,7.115-8.874,11.489
			c-3.383,6.143-9.608,10.643-16.503,11.927c5.438,5.318,14.301,3.645,21.738,2.047c8.924-1.917,17.987-3.191,27.093-3.808
			c5.453-0.37,12.286,0.337,14.262,5.433c0.669,1.725,0.595,3.636,0.512,5.484C114.615,841.814,114.337,844.765,114.023,847.734z"/>
	</g>
	<g>
		<path fill="#B9AC97" d="M176.828,930.998c-19.272-5.447-33.936-12.94-44.83-22.91c-9.341-8.553-15.977-19.411-18.685-30.574
			c-2.135-8.801-1.117-18.099-0.135-27.092l0.296-2.747c0.279-2.623,0.584-5.721,0.722-8.799c0.077-1.693,0.163-3.612-0.475-5.261
			c-1.877-4.842-8.481-5.443-13.713-5.083c-9.053,0.613-18.142,1.891-27.012,3.797c-6.924,1.484-16.4,3.519-22.24-2.192L50,829.398
			l1.04-0.193c6.772-1.262,12.801-5.617,16.123-11.653c0.503-0.914,0.973-1.886,1.448-2.866c1.836-3.795,3.735-7.72,7.755-8.886
			c2.023-0.585,4.143-0.273,6.192,0.029c2.281,0.337,4.433,0.656,6.357-0.222c2.556-1.165,3.686-4.094,4.132-5.736
			c1.647-6.046-0.032-12.448-1.654-18.639l-0.445-1.702c-0.329-1.273-0.608-2.619-0.118-3.861c0.808-2.049,2.968-2.581,5.056-3.095
			c0.67-0.165,1.302-0.321,1.888-0.525c3.769-1.309,5.973-5.203,8.106-8.968c2.408-4.251,4.895-8.647,9.68-9.388l0.591-0.091
			l0.041,0.596c1.014,14.402,4.512,28.389,10.404,41.573c1.686,3.779,3.078,6.297,4.51,8.166l-0.872,0.67
			c-1.488-1.94-2.921-4.527-4.643-8.387c-5.857-13.113-9.373-27.013-10.449-41.325c-3.883,0.918-6.033,4.716-8.303,8.727
			c-2.234,3.943-4.542,8.021-8.703,9.466c-0.634,0.22-1.321,0.389-1.987,0.553c-1.901,0.468-3.696,0.911-4.295,2.431
			c-0.367,0.934-0.133,2.038,0.161,3.182l0.442,1.698c1.66,6.332,3.376,12.878,1.652,19.207c-0.496,1.828-1.774,5.096-4.738,6.448
			c-2.21,1.013-4.635,0.656-6.974,0.309c-2.021-0.299-3.933-0.58-5.726-0.06c-3.55,1.029-5.339,4.73-7.07,8.309
			c-0.483,0.998-0.962,1.988-1.475,2.918c-3.301,5.998-9.156,10.412-15.805,11.976c5.026,4.068,12.541,2.896,20.444,1.195
			c8.924-1.916,18.065-3.201,27.171-3.819c5.58-0.38,12.693,0.318,14.813,5.783c0.722,1.864,0.629,3.906,0.548,5.708
			c-0.14,3.109-0.447,6.226-0.726,8.866l-0.299,2.75c-0.973,8.898-1.978,18.099,0.112,26.712
			c2.657,10.953,9.177,21.616,18.359,30.022c10.762,9.852,25.281,17.265,44.387,22.663L176.828,930.998z"/>
	</g>
	<g>
		<path fill="#F2B37A" d="M320.519,918.814c-12.954-0.744-24.143-0.086-35.33-0.129c-19.516-0.076-39.022,0.628-58.531,0.652
			c-12.607,0.015-25.233-0.235-37.806-1.608c-8.013-0.875-15.874-2.437-23.583-4.704c-6.926-2.037-13.326-5.262-19.259-9.392
			c-3.316-2.308-6.333-4.951-8.865-8.105c-5.849-7.282-8.284-15.638-7.488-24.898c0.909-10.57,4.77-20.014,11.193-28.44
			c4.028-5.284,8.681-9.959,13.939-13.986c11.167-8.553,21.95-17.569,32.738-26.586c5.727-4.787,11.753-9.194,18.086-13.156
			c8.301-5.194,17.046-9.43,26.459-12.25c10.847-3.249,21.897-4.299,33.176-3.55c17.003,1.129,33.412,5.047,49.562,10.26
			c13.651,4.406,27.051,9.505,40.425,14.674c11.769,4.548,23.565,9.025,35.3,13.657c7.734,3.053,15.405,6.269,23.06,9.516
			c19.06,8.086,36.793,20.37,41.969,41.753c5.451,22.52-3.743,39.64-23.1,50.017c-1.758,0.943-3.651,1.648-5.517,2.372
			c-2.961,1.15-6.04,1.826-9.22,1.968c-5.446,0.244-10.892,0.593-16.341,0.669C387.33,917.744,321.056,918.791,320.519,918.814z"/>
	</g>
	<g>
		<path fill="#FFFFFF" d="M164.343,833.209c-0.878,1.249-2.393,2.162-2.625,3.656c-0.131,0.935,0.269,1.836,0.499,2.745
			c0.242,0.919,0.231,2.031-0.515,2.617c-0.198,0.156-0.432,0.256-0.679,0.312c-3.762-1.896-7.671-3.502-11.707-4.899
			c-3.68-1.276-7.405-1.722-11.226-0.94c-2.157,0.452-4.298,0.484-6.467,0.109c-2.751-0.475-5.157-1.645-7.208-3.533
			c-0.519-0.488-0.974-1.07-1.372-1.666c-1.342-2.03-1.176-4.043,0.443-5.992c0.562-0.669,1.569-0.972,1.676-2.223
			c-0.706-0.617-1.515-1.286-2.282-2.014c-1.215-1.151-1.955-2.594-2.373-4.197c-0.42-1.649-0.156-3.224,0.689-4.71
			c0.824-1.462,2.963-2.616,4.571-2.4c2.188,0.295,4.322,0.898,6.013,2.324c3.994,3.382,8.419,6.248,12.155,9.97
			c5.26,5.223,11.706,8.435,18.762,10.478C163.235,833.006,163.784,833.119,164.343,833.209z"/>
	</g>
	<g>
		<path fill="#FED39B" d="M320.331,900.165c-2.72,2.085-5.754,3.576-8.903,4.844c-6.328,2.538-12.941,4.056-19.648,5.123
			c-6.963,1.108-13.971,1.535-21.015,1.053c-7.03-0.498-13.913-1.821-20.619-4.031c-7.384-2.455-14.38-5.777-21.097-9.701
			c-7.526-4.407-14.796-9.234-21.794-14.452c-8.766-6.51-17.271-13.319-25.358-20.661c-2.87-2.612-5.825-5.114-8.796-7.601
			c-7.008-5.844-15.394-9.788-22.104-15.972c-1.736-1.6-3.354-3.633-3.381-5.993c-0.079-6.747,7.823-2.86,10.962-1.952
			c0.722,0.213,1.456,0.365,2.205,0.485c2.123,0.337,4.322,0.307,6.467,0.096c2.448-0.238,4.81-0.002,7.208,0.399
			c12.454,2.139,25.038,2.65,37.635,3.129c8.951,0.358,17.909,0.518,26.85,1.346c5.057,0.473,10.151,0.763,15.219,1.145
			c10.167,0.762,20.203,2.425,30.065,4.99c12.408,3.234,23.468,9.072,32.601,18.222c2.375,2.405,4.548,5.031,6.571,7.739
			c2.185,2.929,3.583,6.285,4.475,9.874C330.056,886.957,327.418,894.698,320.331,900.165z"/>
	</g>
	<g>
		<path fill="#FED39B" d="M372.654,827.607c1.608,1.006,2.957,2.552,3.968,4.882c1.29,2.974-0.661,29.629-1.375,29.872
			c9.529-3.236,19.476-5.242,29.515-5.952c5.813-0.411,11.906-0.335,17.118,2.272c5.212,2.607,9.234,8.396,8.083,14.109
			c-0.693,3.436-3.06,6.271-5.508,8.78c-15.761,16.16-38.567,25.194-61.119,24.212c-5.559-0.242-11.45-1.222-15.592-4.938
			c-2.667-2.393-4.341-5.702-5.556-9.073c-6.144-17.037-0.966-37.563,12.522-49.647c-10.22,1.275-22.838,4.764-32.954,3.124
			c-0.255-13.51,27.771-18.269,37.058-19.013C364.115,825.81,369.037,825.343,372.654,827.607z"/>
	</g>
	<g>
		<g>
			<path fill="#F29C4D" d="M225.732,872.535c-0.055,0-0.111-0.009-0.165-0.026c-4.708-1.486-8.592-5.116-10.389-9.712
				c-0.111-0.281,0.029-0.601,0.313-0.711c0.281-0.109,0.602,0.03,0.712,0.311c1.676,4.287,5.301,7.676,9.695,9.063
				c0.29,0.09,0.45,0.399,0.359,0.689C226.182,872.384,225.966,872.535,225.732,872.535z"/>
		</g>
		<g>
			<path fill="#F29C4D" d="M240.205,869.74c-0.119,0-0.238-0.039-0.339-0.118c-3.198-2.509-6.679-4.665-10.351-6.409
				c-0.274-0.129-0.391-0.457-0.261-0.732c0.131-0.273,0.461-0.391,0.733-0.26c3.743,1.776,7.296,3.978,10.557,6.538
				c0.239,0.187,0.28,0.533,0.093,0.771C240.529,869.667,240.367,869.74,240.205,869.74z"/>
		</g>
		<g>
			<path fill="#F29C4D" d="M249.624,888.209c-0.092,0-0.187-0.024-0.273-0.073l-11.924-6.8c-0.263-0.15-0.355-0.485-0.205-0.75
				c0.15-0.266,0.488-0.357,0.751-0.204l11.924,6.8c0.263,0.15,0.355,0.485,0.205,0.75
				C249.999,888.11,249.814,888.209,249.624,888.209z"/>
		</g>
		<g>
			<path fill="#F29C4D" d="M271.781,884.205c-0.064,0-0.129-0.011-0.193-0.034c-2.394-0.898-4.613-2.326-6.417-4.134
				c-0.215-0.215-0.215-0.563,0-0.777s0.563-0.215,0.777,0c1.695,1.697,3.778,3.039,6.027,3.881
				c0.284,0.107,0.428,0.423,0.321,0.709C272.212,884.07,272.003,884.205,271.781,884.205z"/>
		</g>
		<g>
			<path fill="#F29C4D" d="M272.427,872.739c-0.116,0-0.232-0.037-0.332-0.112c-2.199-1.662-4.655-2.919-7.298-3.731
				c-0.29-0.09-0.453-0.397-0.363-0.687c0.087-0.29,0.389-0.451,0.687-0.365c2.765,0.853,5.335,2.167,7.637,3.907
				c0.242,0.183,0.29,0.528,0.106,0.769C272.758,872.664,272.594,872.739,272.427,872.739z"/>
		</g>
		<g>
			<path fill="#F29C4D" d="M282.657,895.997c-0.418,0-0.835-0.019-1.254-0.056c-0.302-0.028-0.525-0.294-0.498-0.597
				s0.297-0.531,0.597-0.498c2.285,0.206,4.59-0.202,6.662-1.179c0.272-0.125,0.602-0.011,0.731,0.264
				c0.13,0.275,0.012,0.601-0.263,0.732C286.762,895.543,284.719,895.997,282.657,895.997z"/>
		</g>
		<g>
			<path fill="#F29C4D" d="M376.236,878.963c-0.025,0-0.049-0.002-0.074-0.004l-9.07-1.209c-0.302-0.041-0.513-0.318-0.474-0.619
				c0.041-0.301,0.336-0.5,0.617-0.472l9.072,1.209c0.301,0.041,0.512,0.318,0.471,0.619
				C376.743,878.763,376.507,878.963,376.236,878.963z"/>
		</g>
		<g>
			<path fill="#F29C4D" d="M375.085,887.588h-6.81c-0.304,0-0.55-0.247-0.55-0.55c0-0.303,0.246-0.55,0.55-0.55h6.81
				c0.304,0,0.55,0.247,0.55,0.55C375.635,887.341,375.389,887.588,375.085,887.588z"/>
		</g>
		<g>
			<path fill="#F29C4D" d="M389.814,876.727c-0.226,0-0.437-0.14-0.518-0.363c-0.102-0.286,0.046-0.601,0.332-0.704l9.629-3.458
				c0.287-0.097,0.601,0.047,0.703,0.331c0.102,0.286-0.046,0.601-0.332,0.704L390,876.695
				C389.939,876.716,389.875,876.727,389.814,876.727z"/>
		</g>
		<g>
			<path fill="#F29C4D" d="M390.977,885.318h-7.947c-0.304,0-0.55-0.247-0.55-0.55c0-0.303,0.246-0.55,0.55-0.55h7.947
				c0.304,0,0.55,0.247,0.55,0.55C391.527,885.071,391.281,885.318,390.977,885.318z"/>
		</g>
		<g>
			<path fill="#F29C4D" d="M364.873,883.018l-0.06-0.002c-3.13-0.337-6.028-2.524-7.209-5.442c-0.114-0.281,0.023-0.601,0.304-0.715
				c0.279-0.12,0.601,0.019,0.716,0.303c1.033,2.554,3.567,4.467,6.307,4.759c0.302,0.034,0.52,0.305,0.488,0.606
				C365.389,882.809,365.151,883.018,364.873,883.018z"/>
		</g>
		<g>
			<path fill="#F29C4D" d="M262.229,888.894c-1.841,0-3.657-0.316-3.986-0.904c-0.115-0.204-0.074-0.571,0.081-0.747
				c0.201-0.23,0.549-0.251,0.775-0.049c0.073,0.064,0.125,0.142,0.156,0.228c0.615,0.241,2.837,0.599,5.061,0.211
				c0.296-0.058,0.584,0.144,0.637,0.447c0.053,0.299-0.147,0.584-0.446,0.636C263.82,888.834,263.022,888.894,262.229,888.894z"/>
		</g>
		<g>
			<path fill="#F29C4D" d="M292.789,880.778c-0.044,0-0.089-0.004-0.134-0.017l-6.809-1.703c-0.294-0.073-0.474-0.372-0.401-0.666
				c0.072-0.294,0.366-0.49,0.667-0.399l6.812,1.703c0.294,0.073,0.473,0.372,0.399,0.666
				C293.259,880.61,293.036,880.778,292.789,880.778z"/>
		</g>
		<g>
			<path fill="#F29C4D" d="M206.484,859.249c-0.137,0-0.274-0.052-0.381-0.152c-1.77-1.701-4.074-2.891-6.486-3.346
				c-0.299-0.058-0.495-0.346-0.438-0.644c0.056-0.296,0.35-0.496,0.642-0.438c2.62,0.498,5.121,1.787,7.045,3.634
				c0.219,0.211,0.226,0.558,0.015,0.777C206.773,859.193,206.628,859.249,206.484,859.249z"/>
		</g>
		<g>
			<path fill="#F29C4D" d="M164.533,884.162c-0.098,0-0.197-0.026-0.286-0.079c-2.926-1.778-5.645-3.89-8.08-6.278
				c-0.216-0.213-0.219-0.561-0.006-0.777c0.213-0.215,0.561-0.221,0.777-0.009c2.373,2.33,5.025,4.39,7.88,6.123
				c0.259,0.159,0.341,0.496,0.185,0.756C164.9,884.068,164.718,884.162,164.533,884.162z"/>
		</g>
		<g>
			<path fill="#F29C4D" d="M177.04,897.732c-0.075,0-0.151-0.015-0.224-0.047l-6.259-2.803c-0.277-0.125-0.402-0.451-0.277-0.728
				c0.125-0.277,0.449-0.402,0.726-0.277l6.259,2.803c0.277,0.125,0.402,0.451,0.277,0.728
				C177.45,897.612,177.249,897.732,177.04,897.732z"/>
		</g>
		<g>
			<path fill="#F29C4D" d="M185.521,889.289c-0.131,0-0.263-0.047-0.368-0.142c-1.584-1.428-3.485-2.567-5.494-3.295
				c-0.286-0.103-0.434-0.419-0.33-0.704c0.103-0.284,0.421-0.427,0.703-0.331c2.142,0.777,4.168,1.991,5.857,3.514
				c0.226,0.202,0.244,0.55,0.04,0.775C185.821,889.227,185.672,889.289,185.521,889.289z"/>
		</g>
		<g>
			<path fill="#F29C4D" d="M216.71,904.684c-0.067,0-0.133-0.013-0.199-0.036l-7.372-2.854c-0.284-0.109-0.424-0.43-0.314-0.711
				c0.11-0.286,0.428-0.427,0.711-0.316l7.372,2.854c0.284,0.109,0.424,0.43,0.314,0.711
				C217.138,904.551,216.93,904.684,216.71,904.684z"/>
		</g>
		<g>
			<path fill="#F29C4D" d="M199.159,902.302c-0.071,0-0.143-0.013-0.213-0.043l-6.804-2.852c-0.28-0.118-0.412-0.44-0.294-0.719
				c0.116-0.279,0.435-0.417,0.719-0.294l6.804,2.852c0.28,0.116,0.411,0.438,0.294,0.719
				C199.578,902.176,199.374,902.302,199.159,902.302z"/>
		</g>
	</g>
	<g>
		<path fill="#FFFFFF" d="M879.758,739.263c0.134,1.264,0.166,2.613-0.446,3.727c-0.841,1.532-2.634,2.205-4.176,3.026
			c-6.306,3.358-9.786,11.283-7.992,18.199c0.979,3.771,3.319,7.161,3.753,11.033c1.032,9.218-8.406,15.642-15.869,21.151
			c-8.318,6.141-15.7,14.048-19.23,23.767c-3.662,10.083-2.879,21.351,0.162,31.639s8.217,19.793,13.354,29.21
			c9.007,16.509,15.439,33.693,35.035,39.512c10.608,3.15,21.88,2.968,32.944,2.758c16.974-0.321,33.97-0.413,50.938-0.963
			c5.945-0.193,11.056-1.716,16.816-2.468c6.906-0.901,13.241,1.717,20.037,1.717c10.468,1.641,21.23,3.497,31.561,1.145
			c10.331-2.353,20.245-10.106,21.553-20.621c0.891-7.158-2.201-14.753,0.437-21.468c1.355-3.451,4.082-6.197,5.665-9.55
			c6.187-13.106-6.93-27.548-6.492-42.034c0.29-9.608,6.546-18.087,7.918-27.601c2.669-18.513-13.086-34.144-18.819-51.948
			c-3.359-10.432-3.213-21.658-2.267-32.576c1.363-15.744,4.323-31.349,8.818-46.498c-16.954,12.043-35.555,21.764-55.122,28.809
			c-6.796,2.447-16.186,3.671-19.617-2.686c-1.382-2.562-1.257-5.68-2.328-8.387c-3.013-7.615-13.367-8.611-21.452-7.308
			c-12.338,1.988-24.277,6.42-34.924,12.964c-6.922,4.255-13.575,9.506-21.553,11.044c-4.249,0.819-8.647,0.521-12.904-0.257
			c-7.423-1.356-28.64-13.652-21.979,2.105C868.411,718.132,878.375,726.197,879.758,739.263z"/>
	</g>
	<g>
		<path fill="#B9AC97" d="M1025.98,924.378c-6.594,0-13.241-1.046-19.744-2.069l-1.237-0.194l0.172-1.087l1.235,0.194
			c9.974,1.569,20.294,3.194,30.12,0.958c9.229-2.103,19.779-9.305,21.129-20.152c0.359-2.882,0.052-5.91-0.247-8.838
			c-0.436-4.271-0.885-8.687,0.717-12.763c0.758-1.933,1.937-3.655,3.078-5.32c0.932-1.363,1.899-2.773,2.603-4.264
			c3.494-7.408,0.659-15.235-2.343-23.521c-2.158-5.959-4.39-12.12-4.203-18.294c0.161-5.361,2.165-10.422,4.102-15.317
			c1.579-3.986,3.211-8.109,3.823-12.346c1.682-11.682-4.001-22.05-10.019-33.027c-3.297-6.013-6.705-12.229-8.782-18.675
			c-3.563-11.069-3.157-22.789-2.29-32.792c1.364-15.76,4.336-31.442,8.84-46.608l1.052,0.314
			c-4.48,15.095-7.44,30.703-8.797,46.389c-0.859,9.895-1.263,21.476,2.242,32.36c2.042,6.346,5.425,12.516,8.696,18.482
			c5.842,10.653,11.879,21.667,10.144,33.713c-0.629,4.365-2.285,8.549-3.887,12.594c-1.901,4.807-3.87,9.778-4.025,14.944
			c-0.18,5.965,2.015,12.026,4.139,17.887c2.947,8.133,5.992,16.544,2.302,24.366c-0.743,1.571-1.733,3.017-2.691,4.415
			c-1.104,1.615-2.249,3.284-2.962,5.101c-1.503,3.829-1.087,7.92-0.646,12.25c0.305,2.99,0.619,6.08,0.245,9.085
			c-1.417,11.373-12.386,18.904-21.976,21.089C1033.211,924.062,1029.603,924.378,1025.98,924.378z"/>
	</g>
	<g>
		<path fill="#F2B37A" d="M319.326,683.905c-3.526-2.206-5.917-5.95-9.117-9.632c-3.638-4.186-7.304-8.366-10.518-12.893
			c-1.641-2.31-3.163-4.708-4.473-7.223c-1.224-2.349-2.683-4.95-2.398-7.689c0.089-0.854,0.439-1.718,1.118-2.244
			c0.658-0.51,1.556-0.643,2.373-0.485c0.817,0.158,1.562,0.581,2.222,1.088c2.49,1.912,3.626,4.763,5.21,7.343
			c1.658,2.701,3.366,5.372,5.207,7.952c1.83,2.565,3.787,5.046,5.943,7.347c1.086,1.159,2.221,2.272,3.413,3.321
			c0.415,0.365,3.553,2.43,3.538,2.791c0.057-1.378-0.528-2.692-1.091-3.952c-3.336-7.458-6.346-15.062-9.02-22.782
			c-0.469-1.354-0.928-2.713-1.264-4.105c-0.462-1.909-0.691-3.873-0.681-5.836c0.003-0.635,0.036-1.29,0.307-1.864
			c1.24-2.628,4.045,0.296,4.751,1.748c6.018,12.374,9.445,26.933,20.249,35.453c-5.266-9.241-8.872-19.426-10.592-29.922
			c-0.32-1.954,1.502-5.926,3.966-3.888c1.146,0.947,1.941,3.483,2.574,4.814c0.796,1.671,1.524,3.373,2.216,5.089
			c2.768,6.866,4.939,14.003,8.447,20.55c0.628,1.172,1.297,2.321,2.016,3.44c0.514,0.799,1.393,1.28,1.998,0.209
			c1.244-2.201,1.006-4.672,0.647-7.042c-0.431-2.85-0.862-5.7-1.293-8.55c-0.35-2.317-1.93-11.207,2.959-10.073
			c0.591,0.137,1.012,0.654,1.329,1.172c1.132,1.848,1.524,4.041,1.894,6.176c1.083,6.235,2.165,12.47,3.248,18.706
			c1.056,6.082-3.508,13.126-10.742,12.315c-5.732-0.643-11.656,0.743-17.449,0.647
			C323.453,685.836,321.225,685.093,319.326,683.905z"/>
	</g>
	<g>
		<path fill="#F2B37A" d="M805.136,500.949c1.657-4.72,3.978-9.236,4.779-14.314c0.781-4.951-0.517-9.788,0.823-14.596
			c0.132-0.474,0.294-0.975,0.677-1.285c0.27-0.218,0.62-0.313,0.965-0.347c3.94-0.387,6.052,8.939,6.76,11.832
			c1.348,5.507,1.353,11.374-0.476,16.773c-0.99,2.921-2.468,5.648-3.939,8.359c-1.929,3.555-3.857,7.12-6.074,10.507
			c-1.196,1.827-6.322,5.846-6.405,7.906c0.227-5.911,0.624-11.816,1.193-17.704C803.679,505.596,804.328,503.249,805.136,500.949z"
			/>
	</g>
	<g>
		<path fill="#F2B37A" d="M813.48,502.579c1.052,1.767,3.04,2.976,5.138,3.126c-0.547,1.725-0.967,3.601-0.371,5.311
			c0.596,1.71,2.566,3.082,4.314,2.465c-1.197,1.321-1.83,3.219-1.264,4.889c0.566,1.671,2.524,2.891,4.257,2.371
			c-0.03,1.567,0.133,3.306,1.31,4.38c2.484,2.268,5.847-1.889,7.351-3.363c1.972-1.933,4.033-4.021,4.607-6.682
			c0.42-1.946-0.014-3.961-0.499-5.893c-2.304-9.183-5.771-18.09-10.3-26.461c-2.557-4.727-6.181,0.79-7.707,2.995
			C817.447,489.859,810.318,497.267,813.48,502.579z"/>
	</g>
	<g>
		<path d="M827.229,525.533c-0.159,0-0.32-0.006-0.482-0.021c-1.102-0.099-2.077-0.58-2.675-1.321
			c-1.093-1.359-0.903-3.29,0.464-5.363c-1.567,1.072-3.289,1.783-5.051,1.276c-0.149-0.043-0.274-0.148-0.341-0.29
			c-1.129-2.343,1.033-4.944,1.743-5.799c1.633-1.967,3.319-3.898,5.054-5.79l-5.974,5.094c-1.48,1.259-2.817,1.555-3.756,0.84
			c-0.906-0.689-1.019-1.991-0.319-3.66c0.656-1.561,1.405-3.084,2.239-4.557c-1.543,1.385-3.261,2.513-5.274,3.155
			c-0.178,0.054-0.367,0.019-0.512-0.095c-0.143-0.116-0.22-0.296-0.203-0.479c0.848-9.276,5.486-17.957,12.725-23.818
			c0.237-0.189,0.583-0.157,0.773,0.082c0.191,0.236,0.155,0.582-0.082,0.773c-6.681,5.41-11.209,13.653-12.23,22.197
			c3.793-1.544,6.528-5.071,9.179-8.49c3.058-3.945,6.221-8.022,11.062-9.235c0.264-0.073,0.536,0.069,0.64,0.32
			c0.105,0.251,0.012,0.539-0.22,0.681c-7.577,4.637-13.645,11.703-17.084,19.892c-0.228,0.543-0.686,1.858-0.029,2.358
			c0.685,0.526,1.891-0.387,2.378-0.801l16.718-14.259c0.227-0.195,0.57-0.172,0.769,0.056c0.199,0.226,0.179,0.567-0.042,0.769
			c-5.326,4.85-10.361,10.122-14.965,15.67c-1.523,1.834-2.079,3.273-1.692,4.392c1.846,0.382,3.715-0.936,5.472-2.427l5.843-4.963
			c1.701-1.555,3.457-3.048,5.259-4.467c0.235-0.187,0.575-0.15,0.766,0.084c0.19,0.232,0.159,0.573-0.07,0.767l-5.228,4.441
			c-1.895,1.733-3.721,3.544-5.462,5.421c-0.771,0.833-3.174,3.694-1.691,5.535c0.411,0.511,1.109,0.846,1.916,0.917
			c1.867,0.163,3.618-0.947,5.406-2.201l10.751-7.547c0.247-0.178,0.591-0.116,0.766,0.133c0.175,0.249,0.115,0.591-0.134,0.765
			l-10.75,7.549C831.064,524.393,829.259,525.533,827.229,525.533z"/>
	</g>
	<g>
		<g>
			<path fill="#E16A1A" d="M107.73,848.48c-0.133,0-0.264-0.049-0.366-0.14c-0.131-0.116-0.198-0.288-0.181-0.464
				c0.28-2.897,1.873-5.432,3.478-7.779c0.345-0.503,0.692-1.003,1.042-1.499c-0.048-1.05,0.013-2.083,0.163-3.097
				c-1.765,1.927-3.693,3.69-5.927,5.075c-0.159,0.103-0.36,0.11-0.53,0.028c-0.17-0.082-0.286-0.247-0.306-0.434
				c-0.628-5.698,2.528-10.962,5.348-14.914c7.487-10.49,17.425-19.295,28.738-25.468c0.236-0.131,0.54-0.069,0.704,0.157
				c0.163,0.219,0.14,0.526-0.056,0.719c-7.018,6.89-14.275,14.014-20.365,21.937c-1.798,2.339-3.724,5.099-5.046,8.123
				c0.422-0.539,2.134-2.749,2.575-3.312c6.795-8.655,14.614-16.503,23.237-23.329c0.184-0.144,0.44-0.161,0.638-0.03
				c0.198,0.127,0.293,0.363,0.237,0.593c-1.174,4.817-4.914,8.316-8.532,11.699l-0.602,0.565
				c-7.113,6.675-13.562,14.087-19.192,22.055c-0.034,0.107-0.1,0.202-0.188,0.268c-0.347,0.494-0.69,0.988-1.03,1.486
				c-1.369,1.997-2.725,4.132-3.174,6.454c2.925-1.005,5.034-3.913,6.757-6.286c9.037-12.468,19.19-24.259,30.176-35.049
				c0.219-0.213,0.567-0.206,0.777,0.009c0.213,0.217,0.209,0.565-0.006,0.777c-10.943,10.745-21.055,22.489-30.057,34.907
				c-1.982,2.732-4.448,6.132-8.197,6.935C107.807,848.476,107.769,848.48,107.73,848.48z M135.969,802.926
				c-9.617,5.915-18.07,13.788-24.623,22.97c-2.553,3.574-5.393,8.256-5.216,13.245c2.338-1.6,4.346-3.647,6.206-5.842
				c1.196-4.319,3.843-8.219,6.264-11.368C123.84,815.115,129.918,808.904,135.969,802.926z M113.335,833.822
				c-0.277,1.052-0.461,2.128-0.524,3.222c5.451-7.541,11.633-14.57,18.417-20.936l0.604-0.565c3.042-2.846,6.176-5.775,7.662-9.45
				c-7.993,6.499-15.262,13.894-21.627,21.999c-0.44,0.561-0.878,1.125-1.317,1.692
				C115.504,831.135,114.446,832.501,113.335,833.822z"/>
		</g>
		<g>
			<path fill="#E16A1A" d="M139.095,807.624c-0.143,0-0.286-0.056-0.394-0.165c-0.212-0.219-0.207-0.567,0.011-0.778
				c0.417-0.408,0.835-0.816,1.254-1.224c0.242-1.009,0.466-2.021,0.67-3.035c-0.018-0.028-0.034-0.058-0.047-0.09
				c-3.013-7.313-5.801-14.783-8.285-22.203l-0.054-0.161c-1.748-5.221-4.673-13.956-0.622-18.988
				c1.193-1.48,2.497-2.055,3.864-1.722c3.313,0.82,5.819,7.133,6.307,9.626c1.865,9.56,2.127,19.169,0.789,28.664
				c2.723-8.2,5.545-16.527,8.563-24.731c2.527-6.866,5.231-13.483,10.506-18.98c0.896-0.936,2.153-2.017,3.928-2.068
				c2.974-0.077,4.577,2.524,4.671,5.148c0.31,8.63-2.898,17.788-9.536,27.22c-5.877,8.353-13.688,15.968-21.242,23.331
				C139.372,807.572,139.233,807.624,139.095,807.624z M165.722,752.865c-0.034,0-0.07,0-0.105,0.002
				c-1.368,0.039-2.369,0.896-3.167,1.729c-5.134,5.352-7.687,11.589-10.266,18.597c-3.737,10.161-7.177,20.513-10.498,30.582
				c6.554-6.43,13.082-13.09,18.134-20.27c6.497-9.233,9.638-18.166,9.336-26.55C169.097,755.296,168.131,752.865,165.722,752.865z
				 M134.752,760.266c-0.764,0-1.51,0.464-2.267,1.405c-3.675,4.562-0.869,12.94,0.808,17.947l0.055,0.163
				c2.311,6.905,4.886,13.853,7.662,20.678c1.848-10.369,1.753-20.895-0.291-31.366c-0.515-2.642-2.921-8.131-5.491-8.769
				C135.068,760.285,134.909,760.266,134.752,760.266z"/>
		</g>
		<g>
			<path fill="#E16A1A" d="M141.704,806.958c-0.146,0-0.292-0.058-0.399-0.172c-0.208-0.221-0.199-0.569,0.021-0.778
				c6.211-5.865,14.433-8.282,22.384-10.616c5.38-1.581,10.944-3.215,15.789-5.904c5.469-3.035,23.298-14.145,23.066-29.684
				c-0.004-0.305,0.243-0.554,0.546-0.558l0,0c0.3,0,0.55,0.241,0.554,0.541c0.242,16.151-18.027,27.553-23.633,30.663
				c-4.952,2.747-10.574,4.399-16.012,5.996c-7.826,2.3-15.919,4.676-21.937,10.361
				C141.976,806.908,141.839,806.958,141.704,806.958z"/>
		</g>
	</g>
	<g>
		<g>
			<path fill="#241B14" d="M1034.188,561.585c4.609,2.79,10.187,3.365,15.006,3.365c0.859,0,1.695-0.017,2.496-0.045
				c0.773-0.026,1.558-0.066,2.347-0.123c0.068-0.375,0.133-0.751,0.2-1.125c-0.868,0.07-1.733,0.121-2.584,0.149
				c-5.154,0.183-11.715-0.024-16.896-3.161c-2.122-1.284-4.006-3.263-5.236-5.544c-0.113,0.519-0.236,1.035-0.348,1.553
				C1030.474,558.673,1032.237,560.404,1034.188,561.585z"/>
		</g>
		<g>
			<path fill="#241B14" d="M1034.917,572.747c2.134,0.85,4.396,1.151,6.529,1.387c3.531,0.395,7.122,0.628,10.685,0.721
				c0.072-0.363,0.139-0.728,0.21-1.091c-3.592-0.089-7.213-0.323-10.774-0.72c-2.059-0.23-4.236-0.52-6.244-1.319
				c-3.288-1.312-5.851-3.905-7.99-6.654c-0.027,0.12-0.234,1.04-0.311,1.38C1029.143,569.053,1031.681,571.455,1034.917,572.747z"
				/>
		</g>
	</g>
	<g>
		<g>
			<path fill="#B9AC97" d="M893.48,749.555c2.807,0.228,5.617,0.339,8.427,0.339c20.495,0,40.826-5.992,58.033-17.227
				c0.255-0.165,0.325-0.507,0.16-0.76c-0.166-0.256-0.51-0.331-0.761-0.159c-19.363,12.639-42.725,18.563-65.77,16.712
				c-2.26-0.183-6.137-0.9-6.711-3.666c-0.336-1.626,0.736-3.241,1.947-4.121c1.348-0.979,2.996-1.409,4.856-1.832
				c6.984-1.591,14.14-2.743,21.267-3.426c0.302-0.03,0.524-0.299,0.495-0.599c-0.03-0.305-0.292-0.52-0.6-0.496
				c-7.173,0.687-14.376,1.847-21.406,3.447c-1.906,0.436-3.744,0.917-5.258,2.017c-1.497,1.087-2.814,3.127-2.377,5.234
				C886.313,747.588,889.047,749.199,893.48,749.555z"/>
		</g>
		<g>
			<path fill="#B9AC97" d="M882.719,785.452c11.302-0.337,22.696,2.002,32.96,6.74c2.046,0.945,4.088,2.004,6.062,3.028
				c3.086,1.6,6.277,3.256,9.589,4.532c4.044,1.557,7.827,2.337,11.312,2.337c2.118,0,4.126-0.29,6.014-0.866
				c5.294-1.617,10.691-6.598,10.763-12.983c0.07-6.138-4.809-11.196-9.676-13.488c-5.268-2.478-11.353-2.839-16.72-3.157
				l-17.853-1.055c-7.891-0.464-16.049-0.943-23.48-4.033c-0.285-0.125-0.602,0.013-0.719,0.296
				c-0.116,0.279,0.016,0.601,0.296,0.717c7.604,3.164,16.229,3.67,23.839,4.119l17.853,1.055
				c5.268,0.311,11.239,0.664,16.316,3.054c4.548,2.139,9.109,6.828,9.044,12.478c-0.067,5.859-5.074,10.442-9.986,11.944
				c-4.75,1.454-10.341,0.969-16.608-1.445c-3.254-1.254-6.417-2.895-9.477-4.48c-1.986-1.031-4.039-2.096-6.107-3.05
				c-10.42-4.813-22-7.178-33.454-6.843c-1.757,0.052-4.05,0.939-4.845,2.332c-0.399,0.702-0.401,1.456,0,2.182
				c0.462,0.835,1.349,1.239,2.143,1.551c4.996,1.959,10.239,3.118,15.586,3.445c1.942,0.118,4.433,0.803,5.315,2.027
				c0.32,0.447,0.405,0.93,0.257,1.48c-0.078,0.292,0.096,0.595,0.39,0.672c0.294,0.084,0.594-0.092,0.673-0.389
				c0.231-0.863,0.084-1.695-0.427-2.405c-1.172-1.628-4.04-2.356-6.14-2.485c-5.231-0.318-10.363-1.452-15.251-3.368
				c-0.644-0.253-1.297-0.543-1.583-1.061c-0.214-0.387-0.216-0.737-0.006-1.104C879.32,786.314,881.116,785.5,882.719,785.452z"/>
		</g>
		<g>
			<path fill="#B9AC97" d="M986.08,895.994c-1.641-2.075-3.516-4.057-5.329-5.975c-4.168-4.407-8.477-8.965-9.966-14.768
				c-1.547-6.035,0.031-13.039,4.694-20.814c1.448-2.414,3.084-4.783,4.667-7.073c2.6-3.761,5.288-7.648,7.242-11.886
				c4.418-9.577,4.917-20.766,1.369-30.698c-1.561-4.373-3.878-8.466-6.119-12.427c-1.52-2.685-3.091-5.462-4.405-8.29
				c-2.744-5.904-5.267-14.499-1.712-21.916c1.311-2.736,3.387-5.094,5.393-7.375c0.788-0.898,1.576-1.793,2.325-2.715
				c11.328-13.938,12.915-35.195,4.198-50.857c-0.439,0.005-0.875-0.003-1.304-0.027c8.872,15.333,7.446,36.421-3.747,50.193
				c-0.74,0.908-1.518,1.793-2.297,2.678c-2.056,2.337-4.183,4.755-5.56,7.627c-3.74,7.805-1.136,16.737,1.707,22.856
				c1.333,2.867,2.914,5.664,4.445,8.368c2.218,3.92,4.51,7.972,6.041,12.255c3.451,9.665,2.966,20.55-1.333,29.869
				c-1.915,4.149-4.575,7.998-7.148,11.72c-1.593,2.305-3.24,4.686-4.706,7.13c-4.82,8.037-6.44,15.322-4.816,21.656
				c1.559,6.078,5.967,10.741,10.232,15.249c1.797,1.901,3.654,3.864,5.264,5.902c5.235,6.624,8.263,15.023,8.787,23.531
				c0.39,0.06,0.78,0.113,1.169,0.178C994.71,911.6,991.594,902.973,986.08,895.994z"/>
		</g>
		<g>
			<path fill="#B9AC97" d="M1042.576,861.371c1.879-8.361-0.399-17.152-2.594-23.874c-0.566-1.733-1.166-3.46-1.766-5.187
				c-1.995-5.743-4.059-11.682-4.764-17.766c-0.504-4.351-0.318-8.844-0.139-13.187c0.215-5.21,0.438-10.595-0.515-15.825
				c-1.003-5.49-3.276-10.674-5.476-15.685c-1.475-3.366-3.003-6.845-4.124-10.376c-2.618-8.239-2.863-19.177,4.298-25.161
				c0.233-0.193,0.264-0.541,0.07-0.773c-0.195-0.236-0.546-0.264-0.774-0.069c-7.579,6.332-7.367,17.755-4.641,26.338
				c1.139,3.585,2.677,7.092,4.164,10.481c2.174,4.955,4.421,10.077,5.401,15.442c0.932,5.109,0.712,10.432,0.499,15.58
				c-0.182,4.388-0.369,8.924,0.144,13.359c0.719,6.207,2.803,12.203,4.818,18.002c0.598,1.72,1.195,3.441,1.759,5.165
				c2.152,6.591,4.388,15.193,2.567,23.294c-1.559,6.942-7.142,14.274-14.884,15.219c0.362-7.414,0.318-14.918-0.132-22.321
				c-0.017-0.29-0.26-0.515-0.551-0.515l0,0c-3.862,0.028-6.703,3.582-8.073,6.898c-0.451,1.091-0.825,2.232-1.187,3.333
				c-0.754,2.298-1.467,4.469-2.831,6.314c-1.203,1.626-3.204,2.803-5.1,2.998c-0.9,0.092-2.201,0-3.282-0.964
				c-1.187-1.061-1.774-2.841-1.793-5.442c-0.057-7.309,2.939-13.894,6.111-20.865c2.213-4.862,4.501-9.89,5.621-15.15
				c2.37-11.134-0.592-22.435-3.455-33.365c-2.505-9.562-5.096-19.45-4.124-29.211c0.031-0.301-0.19-0.571-0.492-0.601
				c-0.288-0.021-0.571,0.191-0.601,0.494c-0.992,9.957,1.624,19.942,4.154,29.598c2.831,10.805,5.758,21.978,3.442,32.858
				c-1.094,5.142-3.357,10.114-5.545,14.922c-3.082,6.774-6.268,13.778-6.21,21.329c0.023,2.93,0.729,4.974,2.161,6.254
				c1.091,0.973,2.512,1.398,4.127,1.237c2.189-0.225,4.493-1.574,5.872-3.438c1.468-1.987,2.242-4.345,2.991-6.624
				c0.355-1.085,0.723-2.204,1.158-3.256c1.171-2.833,3.478-5.857,6.543-6.19c0.428,7.397,0.452,14.892,0.068,22.289
				c-0.009,0.157,0.052,0.311,0.164,0.421c0.103,0.101,0.242,0.157,0.385,0.157l0.042-0.002
				C1034.677,876.849,1040.886,868.892,1042.576,861.371z"/>
		</g>
	</g>
	<g>
		<g>
			<path fill="#7B431C" d="M635.424,863.892c-1.365-3.817-3.35-6.557-5.9-8.142c-0.103-0.064-0.214-0.106-0.319-0.165
				c-0.423,0.163-0.826,0.363-1.21,0.6c0.335,0.147,0.653,0.314,0.949,0.497c2.332,1.452,4.164,4.003,5.445,7.579
				c0.642,1.793,1,3.398,1.092,4.901c0.2,3.27-0.935,6.575-2.994,9.117c0.448,0.011,0.896,0.02,1.344,0.02
				c1.906-2.654,2.948-5.941,2.748-9.206C636.48,867.485,636.102,865.784,635.424,863.892z"/>
		</g>
		<g>
			<path fill="#7B431C" d="M658.888,860.196c-0.015,0.303,0.219,0.561,0.522,0.576h0.027c0.292,0,0.535-0.23,0.549-0.524
				c0.183-3.807-1.522-7.544-4.306-10.097c-0.462,0.078-0.924,0.156-1.386,0.235C657.234,852.706,659.069,856.419,658.888,860.196z"
				/>
		</g>
		<g>
			<path fill="#7B431C" d="M672.439,877.536c2.141-4.105,3.181-8.808,2.835-13.382c-0.025-0.305-0.289-0.535-0.591-0.507
				c-0.303,0.021-0.529,0.286-0.507,0.589c0.347,4.578-0.78,9.277-3.025,13.327C671.586,877.554,672.002,877.545,672.439,877.536z"
				/>
		</g>
		<g>
			<path fill="#7B431C" d="M691.897,865.396c0.066,0.024,0.132,0.036,0.199,0.036c0.22,0,0.429-0.133,0.512-0.352
				c1.819-4.697,0.98-10.29-2.136-14.248c-0.189-0.243-0.536-0.281-0.772-0.092c-0.238,0.187-0.279,0.533-0.091,0.771
				c2.88,3.66,3.655,8.831,1.975,13.174C691.473,864.966,691.613,865.286,691.897,865.396z"/>
		</g>
		<g>
			<path fill="#7B431C" d="M700.022,849.528c-0.265,0.148-0.36,0.483-0.212,0.747c2.365,4.216,2.516,9.532,0.395,13.874
				c-0.133,0.273-0.02,0.601,0.252,0.734c0.078,0.039,0.16,0.056,0.242,0.056c0.203,0,0.398-0.114,0.494-0.309
				c2.278-4.661,2.114-10.367-0.423-14.892C700.621,849.472,700.287,849.38,700.022,849.528z"/>
		</g>
		<g>
			<path fill="#7B431C" d="M721.159,863.089c-0.301,0.03-0.517,0.309-0.48,0.61c0.558,4.68-0.561,9.49-2.947,13.544
				c0.42,0.002,0.839,0.003,1.261,0.006c2.287-4.141,3.339-8.974,2.778-13.678C721.733,863.267,721.445,863.061,721.159,863.089z"/>
		</g>
		<g>
			<path fill="#7B431C" d="M731.514,840.108c4.398,4.839,6.394,11.805,4.866,18.219c-0.071,0.294,0.112,0.591,0.407,0.661
				c0.043,0.011,0.086,0.015,0.128,0.015c0.249,0,0.475-0.17,0.535-0.423c1.527-6.41-0.258-13.37-4.395-18.426
				C732.543,840.127,732.029,840.117,731.514,840.108z"/>
		</g>
	</g>
	<g>
		<g>
			<path fill="#7B431C" d="M543.332,874.32c0.26-0.235,0.499-0.554,0.682-0.884c-3.295-3.426-6.73-6.751-10.461-9.712
				c-6.082-4.828-12.458-6.75-18.624-8.612l-1.295-0.391c-3.466-1.052-7.158-2.229-10.851-4.042
				c-3.833-1.881-6.419-4.938-6.918-8.179c-0.811-5.249,3.798-9.923,8.533-11.239c1.526-0.427,3.082-0.604,4.628-0.604
				c3.913,0,7.767,1.134,10.931,2.247c3.295,1.162,7.056,2.708,9.976,5.389c4.334,3.98,5.883,9.514,7.38,14.867
				c0.368,1.317,0.735,2.625,1.138,3.905c0.94,2.978,2.238,5.907,3.658,8.792c0.142,0.235,0.268,0.476,0.405,0.712
				c-0.375-1.506-0.693-3.024-0.969-4.552c-0.769-1.751-1.485-3.51-2.046-5.283c-0.399-1.269-0.762-2.567-1.128-3.87
				c-1.539-5.5-3.129-11.19-7.695-15.382c-3.066-2.814-6.954-4.416-10.354-5.612c-4.568-1.609-10.54-3.25-16.22-1.669
				c-5.187,1.445-10.226,6.621-9.324,12.468c0.554,3.595,3.366,6.959,7.519,8.999c3.767,1.847,7.509,3.041,11.017,4.106l1.297,0.393
				c6.347,1.914,12.34,3.722,18.259,8.421C536.595,867.544,540.03,870.881,543.332,874.32z"/>
		</g>
		<g>
			<path fill="#7B431C" d="M530.262,851.15c-0.807-0.878-1.604-1.746-2.382-2.607c-3.716-4.106-7.842-7.893-12.867-7.893
				c-0.104,0-0.209,0.002-0.314,0.004c-1.978,0.064-4.461,0.911-5.503,3.101c-0.813,1.714-0.484,3.967,0.84,5.734
				c1.263,1.688,3.116,2.698,4.591,3.389c2.317,1.087,4.745,1.907,7.094,2.7c3.531,1.194,7.181,2.429,10.391,4.568
				c1.722,1.149,3.291,2.601,4.81,4.008c1.741,1.611,3.542,3.277,5.608,4.527c0.088,0.054,0.187,0.079,0.285,0.079
				c0.096,0,0.18-0.056,0.264-0.105c-0.203-0.692-0.392-1.388-0.566-2.086c-0.137-0.237-0.263-0.477-0.405-0.712
				C538.933,860.604,534.536,855.806,530.262,851.15z M537.669,863.347c-1.548-1.435-3.151-2.917-4.946-4.115
				c-3.331-2.221-7.051-3.477-10.648-4.695c-2.32-0.784-4.717-1.594-6.98-2.655c-2.017-0.945-3.304-1.886-4.176-3.05
				c-1.082-1.448-1.367-3.254-0.727-4.605c0.83-1.746,2.966-2.425,4.544-2.474c0.092-0.002,0.184-0.004,0.276-0.004
				c4.599,0,8.51,3.612,12.054,7.532c0.78,0.861,1.58,1.733,2.387,2.614c4.227,4.605,8.581,9.347,11.7,14.495
				C539.936,865.445,538.79,864.384,537.669,863.347z"/>
		</g>
	</g>
	<g>
		<g>
			<path fill="#1A4E39" d="M711.884,633.066c-1.785,7.313-4.376,15.194-9.745,20.93c-0.554,0.595-1.003,0.855-1.344,0.743
				c-0.527-0.159-0.575-1.121-0.477-1.731c0.61-3.826,5.534-16.691,11.146-20.446c-0.237-0.286-0.459-0.581-0.69-0.87
				c-5.934,4.093-10.895,17.093-11.542,21.145c-0.18,1.136,0.037,2.592,1.248,2.955c1.167,0.357,2.142-0.698,2.463-1.044
				c5.352-5.719,8.003-13.413,9.815-20.634C712.467,633.764,712.176,633.415,711.884,633.066z"/>
		</g>
		<g>
			<path fill="#1A4E39" d="M717.457,631.602c-0.211,0.3-0.425,0.598-0.64,0.895c5.811,4.66-1.051,23.486-3.674,30.663l-0.55,1.514
				c-0.329,0.919-1.196,2.925-2.555,3.095c-0.499-7.004,0.803-14.094,2.065-20.953c0.731-3.979,1.462-8.047,1.87-12.14
				c-0.432-0.03-0.836-0.144-1.068-0.403c-0.397,4.151-1.139,8.293-1.885,12.343c-1.303,7.092-2.65,14.426-2.04,21.733
				c0.02,0.253,0.212,0.458,0.462,0.498c0.14,0.021,0.277,0.032,0.415,0.032c1.532,0,2.891-1.37,3.771-3.836l0.547-1.506
				C717.133,655.446,723.961,636.709,717.457,631.602z"/>
		</g>
		<g>
			<path fill="#1A4E39" d="M816.403,561.609c-3.735-6.106-8.027-11.235-12.828-15.28c-3.826-3.221-8.014-5.762-12.356-7.549
				c-0.27,0.287-0.531,0.58-0.801,0.868c4.373,1.75,8.597,4.28,12.448,7.523c4.858,4.091,9.195,9.307,12.947,15.561
				C816.016,562.361,816.202,561.982,816.403,561.609z"/>
		</g>
	</g>
	<g>
		<g>
			<path d="M548.245,366.364c0.153-0.246,0.327-0.48,0.474-0.73c0.487-0.829,1.071-1.532,1.693-2.186
				c1.039-2.863,2.167-5.666,3.259-8.377c4.653-11.551,8.931-23.799,5.754-35.421c-0.079-0.29-0.376-0.462-0.675-0.384
				c-0.293,0.079-0.465,0.382-0.386,0.677c3.087,11.289-1.13,23.342-5.713,34.716C551.14,358.411,549.565,362.338,548.245,366.364z"
				/>
		</g>
		<g>
			<path d="M555.805,359.713c0.408-0.197,0.812-0.406,1.228-0.577c1.469-8.887,4.999-17.411,10.369-24.686
				c0.18-0.245,0.129-0.589-0.116-0.769c-0.241-0.18-0.587-0.129-0.769,0.116C560.892,341.42,557.222,350.382,555.805,359.713z"/>
		</g>
		<g>
			<path d="M568.885,357.49c0.352,0.099,0.7,0.209,1.045,0.335c1.824-4.831,4.714-9.255,8.523-12.747
				c0.223-0.206,0.239-0.554,0.033-0.777c-0.205-0.223-0.554-0.238-0.776-0.034C573.76,347.886,570.768,352.478,568.885,357.49z"/>
		</g>
		<g>
			<path d="M468.706,321.453c-2.772-10.215-0.332-21.651,6.366-29.845c0.192-0.234,0.158-0.582-0.077-0.773
				c-0.234-0.193-0.58-0.159-0.773,0.077c-6.92,8.464-9.439,20.277-6.576,30.829c0.365,1.343,0.819,2.658,1.348,3.941
				c0.465,0.17,0.96,0.308,1.44,0.462C469.751,324.621,469.144,323.067,468.706,321.453z"/>
		</g>
		<g>
			<path d="M482.659,315.388c-1.266,4.517-1.382,9.087-0.44,13.161c0.376,0.027,0.755,0.03,1.133,0.044
				c-0.975-3.965-0.881-8.46,0.366-12.909c0.991-3.533,3.076-8.374,7.369-11.37c0.249-0.174,0.31-0.518,0.136-0.765
				c-0.175-0.253-0.519-0.309-0.766-0.137C485.896,306.595,483.699,311.681,482.659,315.388z"/>
		</g>
		<g>
			<path d="M509.389,309.297c-6.176,3.234-10.274,9.83-10.441,16.802c-0.018,0.773,0.03,1.542,0.106,2.306
				c0.368-0.008,0.735-0.014,1.102-0.022c-0.082-0.75-0.127-1.504-0.109-2.258c0.155-6.478,4.114-12.848,9.853-15.852
				c0.268-0.142,0.373-0.475,0.232-0.743S509.659,309.157,509.389,309.297z"/>
		</g>
	</g>
	<g>
		<path fill="#B9AC97" d="M542.036,594.349c12.053-1.878,24.491-4.581,34.769-11.218c-0.057-0.402-0.117-0.803-0.173-1.205
			c-10.19,6.731-22.668,9.452-34.765,11.336c-31.192,4.854-57.402,4.119-79.813-2.24c-0.02,0.369-0.039,0.739-0.061,1.108
			c12.714,3.582,26.613,5.398,41.95,5.398C515.766,597.527,528.434,596.466,542.036,594.349z"/>
	</g>
	<g>
		<g>
			<path fill="#8B8171" d="M158.357,894.006c-0.154,0-0.307-0.064-0.416-0.191c-8.981-10.382-16.718-21.834-22.997-34.035
				c-2.904-5.638-5.417-11.694-4.157-17.764c0.045-0.217,0.216-0.387,0.434-0.427c4.025-0.786,7.324,2.332,10.243,5.075l0.761,0.711
				c10.389,9.628,26.638,12.48,39.696,7.015c-1.126-2.678-4.071-4.259-7.009-5.651l-22.886-10.827
				c-2.734-1.293-5.832-2.76-8.112-5.135c-2.576-2.682-3.605-6.293-2.62-9.197c0.085-0.249,0.335-0.384,0.597-0.369
				c2.638,0.369,5.034,1.579,7.352,2.749c0.797,0.402,1.594,0.805,2.399,1.173c2.675,1.224,6.499,2.341,9.519,0.75
				c0.271-0.142,0.601-0.039,0.743,0.232c0.142,0.268,0.039,0.601-0.23,0.743c-2.706,1.424-6.333,1.173-10.49-0.724
				c-0.818-0.374-1.628-0.784-2.438-1.192c-2.094-1.059-4.256-2.15-6.541-2.567c-0.612,2.442,0.339,5.389,2.501,7.642
				c2.14,2.229,5.013,3.589,7.79,4.903l22.886,10.827c3.323,1.572,6.659,3.391,7.76,6.774c0.087,0.268-0.044,0.561-0.303,0.674
				c-13.525,5.902-30.533,3.02-41.361-7.012l-0.767-0.717c-2.633-2.474-5.608-5.29-8.92-4.854c-1.013,5.614,1.38,11.325,4.13,16.666
				c6.24,12.124,13.928,23.503,22.851,33.82c0.199,0.228,0.174,0.576-0.056,0.775C158.612,893.961,158.484,894.006,158.357,894.006z
				"/>
		</g>
		<g>
			<path fill="#8B8171" d="M156.007,819.982c-1.191,0-2.415-0.221-3.596-0.664c-2.808-1.057-4.957-3.224-5.749-5.797
				c-0.054-0.172-0.019-0.357,0.091-0.498c0.111-0.142,0.29-0.213,0.463-0.213c32.267,1.684,57.938-4.558,76.307-18.535
				c0.242-0.183,0.587-0.135,0.77,0.105c0.185,0.243,0.137,0.586-0.104,0.771c-18.423,14.014-44.055,20.331-76.194,18.799
				c0.851,1.918,2.596,3.507,4.803,4.336c2.494,0.943,5.177,0.758,7.18-0.477c0.257-0.159,0.597-0.079,0.757,0.18
				c0.159,0.258,0.078,0.597-0.179,0.756C159.227,819.565,157.648,819.982,156.007,819.982z"/>
		</g>
		<g>
			<path fill="#8B8171" d="M448.149,885.213c-0.029,0-0.058-0.002-0.088-0.006l-20.753-3.35c-0.3-0.049-0.504-0.331-0.454-0.631
				c0.048-0.301,0.321-0.5,0.63-0.455l20.27,3.273c0.365-1.727-0.626-3.748-2.955-6.016c-4.995-4.856-10.915-8.819-16.64-12.648
				c-4.479-2.998-9.111-6.097-13.305-9.624c-1.479-1.244-2.038-2.438-1.662-3.546c0.388-1.145,1.712-1.798,3.548-1.725
				c6.663,0.176,13.286,3.406,20.84,10.161c1.562,1.398,3.107,2.874,4.599,4.3c4.032,3.851,8.201,7.833,13.073,10.616
				c1.051,0.601,3.252,1.409,4.052,0.165c0.479-0.739,0.151-1.817-0.233-2.775c-2.265-5.636-5.352-10.885-9.175-15.603
				c-12.751-15.734-32.412-24.102-49.759-31.484c-0.279-0.12-0.409-0.442-0.29-0.722c0.118-0.281,0.445-0.404,0.721-0.292
				c17.465,7.433,37.26,15.857,50.183,31.806c3.892,4.802,7.035,10.148,9.341,15.887c0.461,1.147,0.892,2.614,0.136,3.78
				c-1.092,1.688-3.559,1.312-5.521,0.191c-4.989-2.848-9.207-6.879-13.287-10.775c-1.487-1.42-3.024-2.889-4.573-4.274
				c-7.35-6.572-13.748-9.712-20.136-9.882c-0.489-0.039-2.154,0.021-2.477,0.977c-0.216,0.638,0.231,1.428,1.328,2.352
				c4.148,3.488,8.754,6.57,13.209,9.551c5.767,3.859,11.729,7.848,16.795,12.775c2.864,2.788,3.907,5.348,3.1,7.609
				C448.588,885.069,448.379,885.213,448.149,885.213z"/>
		</g>
		<g>
			<path fill="#8B8171" d="M96.035,802.771c-0.254,0.207-0.522,0.392-0.805,0.557c3.645,2.494,7.255,5.138,10.419,8.215
				c1.94,1.889,2.766,3.573,2.462,5.011l-16.886-2.727c-0.258-0.038-0.484,0.129-0.525,0.379c-0.041,0.251,0.129,0.485,0.379,0.526
				l17.288,2.791c0.025,0.003,0.049,0.005,0.073,0.005c0.192,0,0.366-0.12,0.431-0.304c0.672-1.884-0.197-4.017-2.583-6.339
				C103.157,807.842,99.615,805.23,96.035,802.771z"/>
		</g>
		<g>
			<path fill="#8B8171" d="M118.387,806.975c-1.921-4.781-4.539-9.234-7.781-13.234c-3.898-4.81-8.552-8.79-13.586-12.216
				c-0.121,0.288-0.267,0.559-0.439,0.814c4.94,3.369,9.501,7.273,13.313,11.977c3.185,3.931,5.756,8.303,7.643,12.998
				c0.32,0.798,0.593,1.696,0.194,2.311c-0.666,1.036-2.499,0.363-3.375-0.138c-4.059-2.319-7.532-5.636-10.891-8.844
				c-1.243-1.188-2.53-2.417-3.831-3.582c-0.722-0.646-1.432-1.243-2.135-1.812c0.059,0.435,0.118,0.871,0.174,1.307
				c0.008,0.019,0.01,0.038,0.018,0.057c0.444,0.373,0.882,0.728,1.333,1.132c1.29,1.154,2.57,2.378,3.809,3.56
				c3.398,3.245,6.912,6.604,11.068,8.976c1.634,0.934,3.689,1.247,4.599-0.159C119.131,809.153,118.771,807.931,118.387,806.975z"
				/>
		</g>
	</g>
	<g>
		<path fill="#241B14" d="M1149.57,922.823c-0.301-2.25,1.6-4.824-12.315-4.809c-35.932,0.039-982.354-0.951-1029.963,0.344
			c-3.196,0.087-6.703,0.215-8.768,0.76c-1.782,0.471-2.007,1.13-2.152,1.743c-1.243,5.233-14.092,11.399-6.716,16.596
			c4.367,3.075,20.502,2.546,31.833,2.294c16.97-0.377,30.922-0.801,48.248-0.568c27.941,0.376,112.346-0.186,125.874,0.078
			c10.144,0.198,19.761,0.831,30.223,0.909c46.644,0.347,808.616-1.218,812.58-1.135c12.544,0.264,11.368-7.783,11.505-9.258
			C1150.136,927.46,1149.88,925.141,1149.57,922.823z"/>
	</g>
	<g>
		<path fill="#E17831" d="M477.034,377.139c-2.309,3.431-7.17,2.727-10.248,2.221c-0.682-0.11-1.342-0.242-2.001-0.33
			c0.66-3.123,1.562-6.158,2.705-9.061l0.33-0.858c1.188,0.11,2.331,0.308,3.475,0.594
			C474.241,370.432,479.959,372.763,477.034,377.139z"/>
	</g>
	<g>
		<path fill="#E17831" d="M525.725,369.055c-2.812-0.284-5.687,0.077-8.537,0.478c-1.623,0.228-3.368,0.531-4.621,1.791
			c-1.562,1.571-1.792,4.489-0.48,6.089c1.272,1.551,3.431,1.687,5.385,1.727c1.704,0.035,3.409,0.071,5.113,0.106
			c3.053,0.064,7.852,0.035,9.64-3.699C534.489,370.814,528.674,369.353,525.725,369.055z"/>
	</g>
	<g>
		<path fill="#7B431C" d="M1057.183,542.349c-0.726,0.33-1.495,0.572-2.243,0.748c-4.574,1.1-9.457,0.835-13.877-0.748
			c-2.639-0.945-5.168-2.903-6.312-5.388c0.901-1.561,2.485-2.507,4.311-2.793c6.774-1.122,12.514,1.1,17.155,5.982
			C1056.721,540.7,1057.007,541.492,1057.183,542.349z"/>
	</g>
	<g>
		
			<ellipse transform="matrix(0.9735 -0.2289 0.2289 0.9735 -68.1718 128.0912)" fill="#241B14" cx="518.177" cy="357.967" rx="3.735" ry="6.248"/>
	</g>
	<g>
		
			<ellipse transform="matrix(0.9735 -0.2289 0.2289 0.9735 -69.2324 118.9456)" fill="#241B14" cx="478.216" cy="357.967" rx="3.735" ry="6.248"/>
	</g>
	<g>
		<path fill="#E17831" d="M495.778,357.967c0,0-2.306,10.847-8.718,19.001c-4.098,5.212,5.68,11.612,7.857,3.871
			C497.095,373.097,496.367,360.824,495.778,357.967z"/>
	</g>
	<g>
		<path fill="#8C4C20" d="M522.553,343.607c1.306,0.576,2.875,1.264,4.045,0.501c0.989-0.645,1.12-2.111,0.568-3.167
			c-0.552-1.056-1.609-1.771-2.675-2.335c-4.421-2.337-9.704-2.802-14.54-1.754c-1.857,0.402-4.286,1.354-4.292,3.584
			c-0.006,1.988,1.466,1.944,2.993,1.693C513.398,341.351,518.048,341.619,522.553,343.607z"/>
	</g>
	<g>
		<path fill="#8C4C20" d="M484.358,343.314c-1.056,0.924-2.705,0.418-4.069,0.022c-2.815-0.857-5.608-1.078-8.379-0.814
			c-0.264-1.803-0.572-3.585-0.836-5.366c3.497-0.572,7.148-0.308,10.491,0.968c1.122,0.418,2.265,0.99,2.947,1.979
			C485.193,341.093,485.259,342.566,484.358,343.314z"/>
	</g>
	<g>
		<g>
			<path fill="#241B14" d="M493.322,395.836c4.407,1.767,9.909,0.785,14.297-0.638c4.713-1.529,8.931-4.134,12.556-7.491
				c0.781-0.723-0.388-1.887-1.166-1.166c-6.037,5.59-16.915,11.046-25.249,7.705C492.776,393.85,492.348,395.445,493.322,395.836z"
				/>
		</g>
		<g>
			<path fill="#241B14" d="M518.083,384.664c0.736,1.677,1.998,3.041,3.651,3.842c0.951,0.461,1.789-0.961,0.833-1.424
				c-1.434-0.695-2.422-1.798-3.059-3.25C519.082,382.861,517.66,383.7,518.083,384.664z"/>
		</g>
	</g>
	<g>
		<g>
			<path fill="#C28953" d="M565.64,384.019c0.075-0.011,0.151-0.029,0.225-0.054c3.648-1.255,6.507-3.928,7.461-6.977
				c1.047-3.354-0.399-7.053-3.439-8.794c-2.1-1.204-4.931-1.555-7.95-1.008c-2.55,0.468-4.894,1.478-7.272,2.561
				c-0.527,0.24-0.748,0.803-0.495,1.259c0.254,0.456,0.885,0.629,1.413,0.389c2.236-1.019,4.432-1.967,6.711-2.385
				c2.488-0.459,4.75-0.186,6.394,0.756c2.32,1.329,3.413,4.185,2.599,6.789c-0.771,2.467-3.12,4.643-6.127,5.677
				c-0.552,0.189-0.84,0.731-0.645,1.209C564.682,383.856,565.157,384.086,565.64,384.019z"/>
		</g>
		<g>
			<path fill="#C28953" d="M559.458,379.459l0.038-0.006c0.577-0.099,0.971-0.589,0.879-1.094c-0.648-3.568,1.192-7.435,4.58-9.623
				c0.48-0.309,0.597-0.894,0.262-1.305c-0.335-0.41-0.991-0.493-1.474-0.183c-4.038,2.609-6.233,7.218-5.459,11.471
				C558.374,379.213,558.895,379.539,559.458,379.459z"/>
		</g>
	</g>
</g>
</svg>
